<mxfile host="app.diagrams.net" agent="Mozilla/5.0 (Macintosh; Intel Mac OS X 10_15_7) AppleWebKit/537.36 (KHTML, like Gecko) Chrome/133.0.0.0 Safari/537.36" version="26.2.5" pages="3">
  <diagram name="es" id="c3cB4l17CzinEFfTmNWS">
    <mxGraphModel dx="1838" dy="892" grid="1" gridSize="10" guides="1" tooltips="1" connect="1" arrows="1" fold="1" page="1" pageScale="1" pageWidth="827" pageHeight="1169" math="0" shadow="0">
      <root>
        <mxCell id="0" />
        <mxCell id="1" parent="0" />
        <mxCell id="gfp4Hjq4H9kUBLCGHOVR-7" value="" style="rounded=0;whiteSpace=wrap;html=1;fillColor=none;" parent="1" vertex="1">
          <mxGeometry x="40" y="490" width="250" height="150" as="geometry" />
        </mxCell>
        <mxCell id="gfp4Hjq4H9kUBLCGHOVR-11" style="edgeStyle=orthogonalEdgeStyle;rounded=0;orthogonalLoop=1;jettySize=auto;html=1;exitX=0.5;exitY=1;exitDx=0;exitDy=0;entryX=0.5;entryY=0;entryDx=0;entryDy=0;" parent="1" source="gfp4Hjq4H9kUBLCGHOVR-1" target="gfp4Hjq4H9kUBLCGHOVR-5" edge="1">
          <mxGeometry relative="1" as="geometry">
            <Array as="points">
              <mxPoint x="500" y="310" />
              <mxPoint x="334" y="310" />
              <mxPoint x="334" y="360" />
              <mxPoint x="100" y="360" />
            </Array>
          </mxGeometry>
        </mxCell>
        <mxCell id="gfp4Hjq4H9kUBLCGHOVR-12" value="key作为路由（可自定义）" style="edgeLabel;html=1;align=center;verticalAlign=middle;resizable=0;points=[];" parent="gfp4Hjq4H9kUBLCGHOVR-11" vertex="1" connectable="0">
          <mxGeometry x="-0.0521" y="-3" relative="1" as="geometry">
            <mxPoint as="offset" />
          </mxGeometry>
        </mxCell>
        <mxCell id="gfp4Hjq4H9kUBLCGHOVR-1" value="客户端" style="rounded=1;whiteSpace=wrap;html=1;" parent="1" vertex="1">
          <mxGeometry x="460" y="240" width="80" height="40" as="geometry" />
        </mxCell>
        <mxCell id="gfp4Hjq4H9kUBLCGHOVR-3" value="" style="rounded=0;whiteSpace=wrap;html=1;fillColor=none;" parent="1" vertex="1">
          <mxGeometry x="20" y="380" width="290" height="590" as="geometry" />
        </mxCell>
        <mxCell id="gfp4Hjq4H9kUBLCGHOVR-4" value="数据节点1" style="rounded=0;whiteSpace=wrap;html=1;" parent="1" vertex="1">
          <mxGeometry x="20" y="380" width="70" height="20" as="geometry" />
        </mxCell>
        <mxCell id="gfp4Hjq4H9kUBLCGHOVR-13" style="edgeStyle=orthogonalEdgeStyle;rounded=0;orthogonalLoop=1;jettySize=auto;html=1;entryX=0.5;entryY=0;entryDx=0;entryDy=0;" parent="1" target="gfp4Hjq4H9kUBLCGHOVR-9" edge="1">
          <mxGeometry relative="1" as="geometry">
            <mxPoint x="100" y="470" as="sourcePoint" />
          </mxGeometry>
        </mxCell>
        <mxCell id="gfp4Hjq4H9kUBLCGHOVR-14" value="refresh&lt;div&gt;成可搜索的segment&lt;/div&gt;" style="edgeLabel;html=1;align=center;verticalAlign=middle;resizable=0;points=[];" parent="gfp4Hjq4H9kUBLCGHOVR-13" vertex="1" connectable="0">
          <mxGeometry x="-0.1" relative="1" as="geometry">
            <mxPoint y="23" as="offset" />
          </mxGeometry>
        </mxCell>
        <mxCell id="gfp4Hjq4H9kUBLCGHOVR-23" style="edgeStyle=orthogonalEdgeStyle;rounded=0;orthogonalLoop=1;jettySize=auto;html=1;exitX=0.75;exitY=1;exitDx=0;exitDy=0;entryX=0.5;entryY=0;entryDx=0;entryDy=0;" parent="1" source="gfp4Hjq4H9kUBLCGHOVR-5" target="gfp4Hjq4H9kUBLCGHOVR-10" edge="1">
          <mxGeometry relative="1" as="geometry" />
        </mxCell>
        <mxCell id="gfp4Hjq4H9kUBLCGHOVR-24" value="顺序写日志" style="edgeLabel;html=1;align=center;verticalAlign=middle;resizable=0;points=[];" parent="gfp4Hjq4H9kUBLCGHOVR-23" vertex="1" connectable="0">
          <mxGeometry x="-0.0028" y="1" relative="1" as="geometry">
            <mxPoint x="43" as="offset" />
          </mxGeometry>
        </mxCell>
        <mxCell id="gfp4Hjq4H9kUBLCGHOVR-52" value="同步写副本" style="edgeStyle=orthogonalEdgeStyle;rounded=0;orthogonalLoop=1;jettySize=auto;html=1;exitX=0.75;exitY=0;exitDx=0;exitDy=0;entryX=0;entryY=0.5;entryDx=0;entryDy=0;" parent="1" source="gfp4Hjq4H9kUBLCGHOVR-5" target="gfp4Hjq4H9kUBLCGHOVR-51" edge="1">
          <mxGeometry relative="1" as="geometry" />
        </mxCell>
        <mxCell id="gfp4Hjq4H9kUBLCGHOVR-5" value="分片1-主" style="rounded=0;whiteSpace=wrap;html=1;" parent="1" vertex="1">
          <mxGeometry x="60" y="450" width="80" height="20" as="geometry" />
        </mxCell>
        <mxCell id="gfp4Hjq4H9kUBLCGHOVR-6" value="分片2-副" style="rounded=0;whiteSpace=wrap;html=1;" parent="1" vertex="1">
          <mxGeometry x="170" y="450" width="80" height="20" as="geometry" />
        </mxCell>
        <mxCell id="gfp4Hjq4H9kUBLCGHOVR-8" value="内存" style="rounded=0;whiteSpace=wrap;html=1;" parent="1" vertex="1">
          <mxGeometry x="40" y="490" width="40" height="20" as="geometry" />
        </mxCell>
        <mxCell id="gfp4Hjq4H9kUBLCGHOVR-9" value="segment缓冲区" style="rounded=0;whiteSpace=wrap;html=1;" parent="1" vertex="1">
          <mxGeometry x="55" y="575" width="90" height="20" as="geometry" />
        </mxCell>
        <mxCell id="gfp4Hjq4H9kUBLCGHOVR-38" style="edgeStyle=orthogonalEdgeStyle;rounded=0;orthogonalLoop=1;jettySize=auto;html=1;entryX=0.5;entryY=0;entryDx=0;entryDy=0;" parent="1" source="gfp4Hjq4H9kUBLCGHOVR-10" target="gfp4Hjq4H9kUBLCGHOVR-37" edge="1">
          <mxGeometry relative="1" as="geometry" />
        </mxCell>
        <mxCell id="gfp4Hjq4H9kUBLCGHOVR-39" value="fsync持久化&lt;br&gt;决定数据安全性" style="edgeLabel;html=1;align=center;verticalAlign=middle;resizable=0;points=[];" parent="gfp4Hjq4H9kUBLCGHOVR-38" vertex="1" connectable="0">
          <mxGeometry x="-0.0009" relative="1" as="geometry">
            <mxPoint as="offset" />
          </mxGeometry>
        </mxCell>
        <mxCell id="gfp4Hjq4H9kUBLCGHOVR-10" value="translog" style="rounded=0;whiteSpace=wrap;html=1;" parent="1" vertex="1">
          <mxGeometry x="190" y="575" width="90" height="20" as="geometry" />
        </mxCell>
        <mxCell id="gfp4Hjq4H9kUBLCGHOVR-27" style="edgeStyle=orthogonalEdgeStyle;rounded=0;orthogonalLoop=1;jettySize=auto;html=1;entryX=0;entryY=0.5;entryDx=0;entryDy=0;" parent="1" source="gfp4Hjq4H9kUBLCGHOVR-25" target="gfp4Hjq4H9kUBLCGHOVR-9" edge="1">
          <mxGeometry relative="1" as="geometry">
            <mxPoint x="50" y="540" as="targetPoint" />
          </mxGeometry>
        </mxCell>
        <mxCell id="gfp4Hjq4H9kUBLCGHOVR-25" value="refrsh的周期&lt;div&gt;决定了可检索的时效性&lt;br&gt;segment生成后就不会修改&lt;br&gt;可配置buffer大小&lt;/div&gt;" style="text;html=1;align=left;verticalAlign=middle;resizable=0;points=[];autosize=1;strokeColor=#6c8ebf;fillColor=#dae8fc;" parent="1" vertex="1">
          <mxGeometry x="-175" y="520" width="170" height="70" as="geometry" />
        </mxCell>
        <mxCell id="gfp4Hjq4H9kUBLCGHOVR-29" style="edgeStyle=orthogonalEdgeStyle;rounded=0;orthogonalLoop=1;jettySize=auto;html=1;entryX=1;entryY=0.5;entryDx=0;entryDy=0;" parent="1" source="gfp4Hjq4H9kUBLCGHOVR-28" target="gfp4Hjq4H9kUBLCGHOVR-10" edge="1">
          <mxGeometry relative="1" as="geometry" />
        </mxCell>
        <mxCell id="gfp4Hjq4H9kUBLCGHOVR-28" value="translog保证了数据的安全&lt;br&gt;崩溃恢复&lt;br&gt;WAL，mysql，redis存储的常规设计" style="text;html=1;align=left;verticalAlign=middle;resizable=0;points=[];autosize=1;strokeColor=#666666;fillColor=#f5f5f5;fontColor=#333333;" parent="1" vertex="1">
          <mxGeometry x="350" y="555" width="210" height="60" as="geometry" />
        </mxCell>
        <mxCell id="gfp4Hjq4H9kUBLCGHOVR-30" value="" style="rounded=0;whiteSpace=wrap;html=1;fillColor=none;" parent="1" vertex="1">
          <mxGeometry x="40" y="710" width="250" height="240" as="geometry" />
        </mxCell>
        <mxCell id="gfp4Hjq4H9kUBLCGHOVR-31" value="磁盘" style="rounded=0;whiteSpace=wrap;html=1;" parent="1" vertex="1">
          <mxGeometry x="40" y="710" width="40" height="20" as="geometry" />
        </mxCell>
        <mxCell id="gfp4Hjq4H9kUBLCGHOVR-32" value="segment" style="rounded=0;whiteSpace=wrap;html=1;" parent="1" vertex="1">
          <mxGeometry x="50" y="750" width="60" height="20" as="geometry" />
        </mxCell>
        <mxCell id="gfp4Hjq4H9kUBLCGHOVR-33" value="segment" style="rounded=0;whiteSpace=wrap;html=1;" parent="1" vertex="1">
          <mxGeometry x="60" y="760" width="60" height="20" as="geometry" />
        </mxCell>
        <mxCell id="gfp4Hjq4H9kUBLCGHOVR-40" style="edgeStyle=orthogonalEdgeStyle;rounded=0;orthogonalLoop=1;jettySize=auto;html=1;" parent="1" source="gfp4Hjq4H9kUBLCGHOVR-34" target="gfp4Hjq4H9kUBLCGHOVR-37" edge="1">
          <mxGeometry relative="1" as="geometry" />
        </mxCell>
        <mxCell id="gfp4Hjq4H9kUBLCGHOVR-42" value="清理" style="edgeLabel;html=1;align=center;verticalAlign=middle;resizable=0;points=[];" parent="gfp4Hjq4H9kUBLCGHOVR-40" vertex="1" connectable="0">
          <mxGeometry x="-0.0857" relative="1" as="geometry">
            <mxPoint as="offset" />
          </mxGeometry>
        </mxCell>
        <mxCell id="gfp4Hjq4H9kUBLCGHOVR-44" style="edgeStyle=orthogonalEdgeStyle;rounded=0;orthogonalLoop=1;jettySize=auto;html=1;exitX=0.5;exitY=1;exitDx=0;exitDy=0;entryX=0.5;entryY=0;entryDx=0;entryDy=0;" parent="1" source="gfp4Hjq4H9kUBLCGHOVR-34" target="gfp4Hjq4H9kUBLCGHOVR-43" edge="1">
          <mxGeometry relative="1" as="geometry" />
        </mxCell>
        <mxCell id="gfp4Hjq4H9kUBLCGHOVR-45" value="定期merge&lt;br&gt;清理已经删除的doc" style="edgeLabel;html=1;align=center;verticalAlign=middle;resizable=0;points=[];" parent="gfp4Hjq4H9kUBLCGHOVR-44" vertex="1" connectable="0">
          <mxGeometry x="-0.1643" relative="1" as="geometry">
            <mxPoint as="offset" />
          </mxGeometry>
        </mxCell>
        <mxCell id="gfp4Hjq4H9kUBLCGHOVR-47" style="edgeStyle=orthogonalEdgeStyle;rounded=0;orthogonalLoop=1;jettySize=auto;html=1;exitX=1;exitY=0.5;exitDx=0;exitDy=0;entryX=0;entryY=0.5;entryDx=0;entryDy=0;" parent="1" source="gfp4Hjq4H9kUBLCGHOVR-34" target="gfp4Hjq4H9kUBLCGHOVR-46" edge="1">
          <mxGeometry relative="1" as="geometry" />
        </mxCell>
        <mxCell id="gfp4Hjq4H9kUBLCGHOVR-48" value="更新" style="edgeLabel;html=1;align=center;verticalAlign=middle;resizable=0;points=[];" parent="gfp4Hjq4H9kUBLCGHOVR-47" vertex="1" connectable="0">
          <mxGeometry x="0.2414" relative="1" as="geometry">
            <mxPoint as="offset" />
          </mxGeometry>
        </mxCell>
        <mxCell id="gfp4Hjq4H9kUBLCGHOVR-34" value="segment" style="rounded=0;whiteSpace=wrap;html=1;" parent="1" vertex="1">
          <mxGeometry x="70" y="770" width="60" height="20" as="geometry" />
        </mxCell>
        <mxCell id="gfp4Hjq4H9kUBLCGHOVR-35" style="edgeStyle=orthogonalEdgeStyle;rounded=0;orthogonalLoop=1;jettySize=auto;html=1;exitX=0.5;exitY=1;exitDx=0;exitDy=0;entryX=0.5;entryY=0;entryDx=0;entryDy=0;" parent="1" source="gfp4Hjq4H9kUBLCGHOVR-9" target="gfp4Hjq4H9kUBLCGHOVR-34" edge="1">
          <mxGeometry relative="1" as="geometry" />
        </mxCell>
        <mxCell id="gfp4Hjq4H9kUBLCGHOVR-36" value="flush持久化到磁盘&lt;br&gt;默认30分钟" style="edgeLabel;html=1;align=center;verticalAlign=middle;resizable=0;points=[];" parent="gfp4Hjq4H9kUBLCGHOVR-35" vertex="1" connectable="0">
          <mxGeometry x="-0.1886" y="-1" relative="1" as="geometry">
            <mxPoint as="offset" />
          </mxGeometry>
        </mxCell>
        <mxCell id="gfp4Hjq4H9kUBLCGHOVR-37" value="translog" style="rounded=0;whiteSpace=wrap;html=1;" parent="1" vertex="1">
          <mxGeometry x="190" y="760" width="90" height="40" as="geometry" />
        </mxCell>
        <mxCell id="gfp4Hjq4H9kUBLCGHOVR-43" value="segment" style="rounded=0;whiteSpace=wrap;html=1;" parent="1" vertex="1">
          <mxGeometry x="55" y="850" width="90" height="30" as="geometry" />
        </mxCell>
        <mxCell id="gfp4Hjq4H9kUBLCGHOVR-46" value="checkpoint" style="rounded=0;whiteSpace=wrap;html=1;" parent="1" vertex="1">
          <mxGeometry x="190" y="850" width="90" height="30" as="geometry" />
        </mxCell>
        <mxCell id="gfp4Hjq4H9kUBLCGHOVR-49" value="" style="rounded=0;whiteSpace=wrap;html=1;fillColor=none;" parent="1" vertex="1">
          <mxGeometry x="650" y="380" width="290" height="590" as="geometry" />
        </mxCell>
        <mxCell id="gfp4Hjq4H9kUBLCGHOVR-50" value="数据节点2" style="rounded=0;whiteSpace=wrap;html=1;" parent="1" vertex="1">
          <mxGeometry x="650" y="380" width="70" height="20" as="geometry" />
        </mxCell>
        <mxCell id="gfp4Hjq4H9kUBLCGHOVR-51" value="分片1-副" style="rounded=0;whiteSpace=wrap;html=1;" parent="1" vertex="1">
          <mxGeometry x="700" y="450" width="80" height="20" as="geometry" />
        </mxCell>
        <mxCell id="gfp4Hjq4H9kUBLCGHOVR-56" style="edgeStyle=orthogonalEdgeStyle;rounded=0;orthogonalLoop=1;jettySize=auto;html=1;entryX=1;entryY=0.25;entryDx=0;entryDy=0;" parent="1" source="gfp4Hjq4H9kUBLCGHOVR-55" target="gfp4Hjq4H9kUBLCGHOVR-37" edge="1">
          <mxGeometry relative="1" as="geometry" />
        </mxCell>
        <mxCell id="gfp4Hjq4H9kUBLCGHOVR-55" value="index.translog.durability&lt;br&gt;request：每次都fsync&lt;br&gt;async：异步刷" style="text;html=1;align=left;verticalAlign=middle;resizable=0;points=[];autosize=1;strokeColor=#d79b00;fillColor=#ffe6cc;" parent="1" vertex="1">
          <mxGeometry x="350" y="740" width="150" height="60" as="geometry" />
        </mxCell>
        <mxCell id="gfp4Hjq4H9kUBLCGHOVR-57" value="del doc" style="rounded=0;whiteSpace=wrap;html=1;" parent="1" vertex="1">
          <mxGeometry x="55" y="910" width="90" height="30" as="geometry" />
        </mxCell>
        <mxCell id="gfp4Hjq4H9kUBLCGHOVR-58" value="https://developer.aliyun.com/article/1082566" style="text;html=1;align=center;verticalAlign=middle;resizable=0;points=[];autosize=1;strokeColor=none;fillColor=none;" parent="1" vertex="1">
          <mxGeometry x="-140" y="1048" width="260" height="30" as="geometry" />
        </mxCell>
        <mxCell id="nsO0bjDOVVvHEehjIz_w-1" value="" style="shape=image;verticalLabelPosition=bottom;labelBackgroundColor=default;verticalAlign=top;aspect=fixed;imageAspect=0;image=data:image/png,iVBORw0KGgoAAAANSUhEUgAAAfcAAAMcCAYAAABNaexPAAABW2lDQ1BJQ0MgUHJvZmlsZQAAKJFjYGASSCwoyGFhYGDIzSspCnJ3UoiIjFJgf8nAzCDEIAzEIonJxQWOAQE+QCUMMBoVfLvGwAiiL+uCzFIsXxR+/ZF33uTEbLmENRuuYqpHAVwpqcXJQPoPEJslFxSVMDAwmgDZAeUlBSB2C5AtUgR0FJA9A8ROh7DXgNhJEPYBsJqQIGcg+wqQLZCckZgCZD8BsnWSkMTTkdi5OaXJUDeAXM+TmhcaDKSlgFiGwYXBiMGEwYAhgkEBDTLg0GcC1ufMkM9QwFDJUMSQyZDOkMFQAtThCBQpYMhhSAWyPRnyGJIZ9Bh0gGwjoPlGDKag8EYPR4TYFBUGBi8uBgamHoSYLdBfK4DuFNFAiKmcY2Dgvc3AsKeyILEoER66jN9YitOMjSBsfmA0s0f8//+pj4GB8zgDw+93////Dv3//+8qBgbmHQwMBzgBYDxhjDeWxScAAAA4ZVhJZk1NACoAAAAIAAGHaQAEAAAAAQAAABoAAAAAAAKgAgAEAAAAAQAAAfegAwAEAAAAAQAAAxwAAAAAUlCaKwAAQABJREFUeAHsnQm4FNWZ/j/DIjvKvoRFUBCMIIHEgT9kBGIGwxUmgGASGARkkdUIQRYdLmpYZZElQVkVUYyyqIigMXEDGSAGFRAYIeJFQQMooEQUmP99P3Oa6qarq7u6u7q76j3P07erq876O+hXZ/veS6pWrfp/EiOsXr1aunTpEiMGH5EACZAACZAACWQTge9lU2VYFxIgARIgARIggeQJ0Lgnz5A5kAAJkAAJkEBWEcg64964cWNp0aKFa0jdu3eXcuXKhaVPNs+wzPiDBEiABEiABLKcQNYZ927duknfvn1dY7v11lvl+9//flj6ZPMMy4w/SIAESIAESCDLCRTNtvrNmzdPihcvntJqpSPPlFaQmZEACZAACZBACglkjXHH1Pm4ceO0af/7v/8rEydODDXz0UcflT179kjTpk3lkksukeeee05WrFihz1u2bCnDhg6V4pdeKh988EEoDS5i5Ynnw4YNk9atW0uxYsXk9OnTWibKxsj/nnvukcqVK8u5c+dk/fr1smzZMiSR2rVry+jRo6V69er6e+fOnTJhwgS95h8SIAESIAESyAYCWTMtv3v3bpkyZYp8+umnUng8L4xNmTJlpFmzZrJ06VLZtWtX2NG8IUOGyBcnTsicOXOkWrVqYeli5XnbbbdJ27ZtZevWrTJmzBj5y1/+IpdddpmmRz0wezBz5kx56aWXpFOnTqG8Bw4cKCVLltQ0MOqRLxRhFeAPEiABEiABEsgAgawZuaPtGAWfKDTUMJ6RYcuWLbJx40bZtm2bLFq0SBo2bCjHjh2TUqVKyf333y979+6VSwtH73fccUdYUrs827VrJ0eOHJEZM2Zo/H379uk3ZgeQ57vvvqsj+FOnTsm3334r2KiHF4jy5cvr7MGZM2cEo3zkz0ACJEACJEAC2UTA0bhjGnzVqlWhOuO3m5CsIxyMwhGOHz+u35dffrnUq1dPr2HYEd5//339jucPDDheGCJD3bp19VaNGjUEH4TDhw8LjDzCggULZOTIkTJ79mw1+itXrpQ1a9boM/4hARIgARIggWwg4Gjc/+///k+6du2a8bqiHpEBU/QIWAf/6KOPxBjmyHjRfmPkXb9+/YseYVkAYeHChboEEBkBI/U+ffroqH7EiBHSs2dPGvdISPxNAiRAAiSQUQJZs+buhgIMOqbMYWwrVKggOPIWb9ixY4e+DNx0002aBGfrMdWP0fzZs2elf//+oZF7+/bt5ZprrtF4nTt31rX5Q4cO6VIANtwxkAAJkAAJkEA2EXAcuXtV2blz50rNmjVDxcGnPXawY2SMcP78+dAz62/E69Gjh67Dnzx5MixOrDynT5+uG+ZgxPHBzMCkSZM0PZ6NGjVKcITOlDVr1iy97tixo/Tu3Vvjw7BzSl6x8A8JkAAJkEAWEbjEL8IxWB//5JNPXKHF2v2BAwcuSovd90WLFhWM0q0BswTYwY+ZAwYSIAESIAESyDYCWTNyTxaMW8OOcqMZdtzHbvpoAZv6zMa+aM95jwRIgARIgAQySSCn19wzCY5lkwAJkAAJkEC2EnA07tF2qaezMdZjd+ksh3mTAAmQAAmQgF8JOBp3t+fa3QLzujy39cymdHC882//9m9RqxTptS9qpCg3K1WqJPAlkGhwW16i5UTGx6bKSDXAyDj8TQIkQAJBIeCbNXevOgx+5wcNGiSNGjWSgoICufPOOx2Lhhc8bMLDkT0T7r33Xj1e9/HHH9s+g8JdPOEXv/iFVKxYMcwpz49//GP1gf+97333/vbss88KfPTDjS/KHj58eGij4B//+Ef505/+JI888oj8x3/8h/zqV7+SsmXLatHffPONoB5wCfyHP/whVB14Enz99dfVJTBu2pWHZ8gfGxOtYfDgwaE9Db/85S+1/uZ0gjUeruEmGDoA8BqYn58f+Vh/w7i/9957YpwdRY0U42YsLvCKGIsZsv3P//xP+a//+q+YdYxRPB+RAAmQQEoJOI7cU1qaDzJ78MEH9fz7119/LUWKFImrRZs2bVK3tdbIDRo0UL/0sZ5Z48e6hre8SPEaeNE7ePCg+uGH8A3O52NUbYx9ZH5mxgRyuxDpgaHq16+fvPbaa2FRlyxZIr/5zW/0ReLmm29WB0KIYFcenuEF6L//+79xqYYev62bFeFf4Oqrr9bn0f7gZSrdy0OxuMR6Zurbpk0brSNe+hhIgARIINMEAm3cH3vsMT2zDsU3rPU/9NBD2h916tQRnJF/5pln9GMdLWIEBwP4j3/8I+6++/Of/6xxf/rTn+o3BGpKly4tr776qsR6Bn/2GG2jHhhVL168WJ584glp3ry55gOXvnB/C5e48JZnAqbpoXSHtAjwxQ/jCGMcK/zgBz/QdCjvyy+/lM8//zxstI60R48e1ZeGp59+WrOC8x+n8nCSAS8aCPAAaI4QwiCi/tdee62q7OEaH6twENT5EN+4/9VMCv+0atVKnihkgX6bOnWqua3fSPPUU0/psycK1QPhmwAhLy8vNNOgNwr//O53v5O7777b/HT9jX8zL774ovK76qqrXOfDhCRAAiSQCgKBNu4wsFB8g296TJ2bKV04tYHv+bFjx+o08P79+0OsIRaTaPjiiy8EDnZgkBD+/d//Xb8xFR7rGda8IaKD6XCsgaOen372mTrtQQavvPKKThebqX3NtPCP8YlvPeIHd7tO6+FwrQtnQZDbhaMeLCVEBrzY4MUHLxsYfcOJkNvy3njjDa3/hx9+qC8SeHHCx7gAhlfA66677iLjjTqpGmAhV7yQWV8G8Oyrr75SB0Qw2u8VtgkzEFWqVJHNmzfrDMr111+PaBow0oa3wmQC9jtgdI8XCszoGK+HyeTJtCRAAiSQDIFAG3eAgwGcPHmy/o//4YcfVpYYWWOaGgYRBm/58uXJMNa077zzjmAqHgHG5bNCI21CrGcw/jDiGHljjRviOHCgg4B1b7xsRI5qjXQtRt8mwJseXlicAqbPMTrHND7860MO1xpQJmYt/vnPf6qhxIg1mfJM/WEUcW19eRo9erS2HfWxBrzo4KUHhh1MVhSOzq0B3gShO4Cpfoj+IFx55ZXqmwB5YQSPAM0EcIXaYDLhxhtv1Jc39ANewLB+z0ACJEACmSQQvsspkzX5V9kYRaXiOFy8YjdvvfXWRa02ym8wEvBdj6nitWvXXhQvkRsvv/yyYBraqNlh1G5CrGfwc28CXjawwS1yc5p5br7xQoCATXHG8GN/AF4orPmZ+Pg27n0xe4HNdth5Ds37G264QUfPxkiib4yaHjbKwZ+/mfGIVp61jESusSSBlxi8zGDGo3jx4jp70bhxY8ELBYKdGuC0adNUMRCOhuDCGAFywAh/+ctfBBsQEaAZYKR+Y3GJ9Qz5YPSPl5MBAwYoN8gCY4MjJIkZSIAESCATBLLOuN93332ecsBINDIY5bdatWqpoevVq1fSxh15wkjAaMFQvfTSS6FiYz0LRUrgArv4EeBWF7MCCDBuH/5r+hu/UQcTMKVsXgjMPSwjQL++devWeswumg99pLniiitCI99o5Zn8Yn1j9By5aQ0vF5htwK56PMcegurVq+sUu3VvBNby69atG8oeCoEYpWNJBcYfLwMPPPBAKP9169bJLbfcoqcCsEyBdXsE7C9AiMYl1jO0v0SJErpHAUsIJmA0j5dCBhIgARLIBIHAT8tHg451eEw1w0jCQFiV33AfRgz/Q4fBxDVGavEEGNef/exnOsozm8pMuljPTJx4v/GygBkHrJsjDBw4UL9xpAvlwlhaR68wrB988IGuyWMzGo77IWBUjlkC67Q1DCKWF37961/rSBozELHKQz4YacPgIiDvSKldTKFjqt2MyBEPmwDxIoQPjrnhZQNH3bArH20w7cMIOZoaIO7jc/vttyO7UMBMBmYhsA6Pl60333xTn8XiEusZ1tcx64FRO15E8MGyBV6KGEiABEggUwSybuTuNQgzHW0tF2uyRvkNz62jVhgFTBObo2NQkMNxtpkzZ1qziHqNeDByZjrZGinWM8SDQUZd8B0ZTF2s97GkAGU7bHhDePzxx8POtcNomnZgKeRvf/ubbkzDjnkzMsZLzf/8z//I3//+99CmNRyRQx2wnr9169bQjEas8jBNbpYS8FKBM+HYEGeOw2FZAtP/2NSItuBMe6RWQGS7jRogNvaZpQe0E4YYywR4CUAwywnWfkZ55ky6RvrXHywzROOCx3bPhg4dGuJq8vrrX/+qMwPmN79JgARIwGsCvlGFSzU4jPqw5muOcKU6/1Tm9/vf/17X061H9kz+OEOOM/BYE8ZOd2vAlDIMd2RA23GSAIYy0RCrvETziic+ZIJxWiAyYFofLxRuBH7suKCMWM8i68DfJEACJJApAjTuKSCPqXqcQbcLGNVjZJ7qAKONDXpYZ8ao164MHAP7+c9/LjjP70Xwujwv2sQySIAESCCXCNC4p6i3Yp0hN9PPKSoqlM1dd92lU/XPP/+8WM/ihyLwggRIgARIIJAEAr/mjrVbeHpLNqTLgMeqVzzr/LHS8xkJkAAJkIA/CXC3vMf96kZpzeMqsjgSIAESIIEcJxD4kbtX/YfjYxPz86V44fE57PzGUa8NGzZ4VTzLIQESIAESCBABjtw96uxx48bJicKz2jgPjSl8+K9nIAESIAESIIF0EKBxTwfViDwhbIKjWU8++aS6JMXUPM5zGx/nEdH5kwRIgARIgASSIkDjnhS++BIbj29wXgMPZvARD+9oOKPNQAIkQAIkQAKpJkDjnmqiUfIzqmmQUIVYCVToYNwxmmcgARIgARIggVQTCPyGOkyPW1XoorlyjQd6rON0RpQFYiZw2QpZU3hPg790BhIgARIgARJINYHAG3fsXI9XHtYt/EOHDmlSKI5NnTpVpVhh3KO5TXVbBtORAAmQAAmQgCEQeONuQKTz+9NPP9VROqbiEaDShpcKyI8ykAAJkAAJkECqCXDNPdVEbfKDMhrW2OERD2psjz32mE1M3iYBEiABEiCB5Ahw5J4cv7hTQ4YUcqIQeXGjthZ3QYxIAiRAAiQQeAIcuXv8T4CG3WPgLI4ESIAEAkiAxj2Anc4mkwAJkAAJ+JuAo3HHxi8/B6/bZz1252eubBsJkAAJkEDmCDgad7fnvjPXpMRK9rp9XpeXGA3GJgESIAES8AMBR+Puh0ayDYkR+OUvfylDhw5NLFFhbLfpEi6ICUiABEiABGIS4G75mHiC+bBhw4ZSqVKlhBvvNl3CBTEBCZAACZBATAI07jHx+PNhnTp1ZNSoUVK9enVt4M6dOyU/P1/atGkjQ4YMkWLFiun9lStX6veIESMEjnjuueceufbaa9V17pmvv5YVTzwhL7zwgmM6COeMHz9eKleuLOfOnZP169fLo48+6k+4bBUJkAAJZAEBGvcs6ASvqwAt+VKlSgl83V966aXSrFkzrcIbb7yhWvODBg2S8uXLq6tcPIBhR/jqq69k3rx5cvjwYbnlllukX79+sm3bNnFKB6Gcb7/9VmbNmiWNGjWSzp07y8aNG7UszZh/SIAESIAEUkqAa+4pxZkbmUGlDhv7ID2LUfvy5ctDFYeozalTp+TrwpE5rvExAcZ5165dcvXVV6uBx/0rr7xSH9ula9q0qZQuXVr27NkjGMEjbxh6OPRhIAESIAESSA8BjtzTw9U2VxhVuKA1we1RvGTEbhYsWCAjR47UkTQMLabf165da6pk+w0XuvXq1ZPjx4/L6dOnNR5G/rFC3bp19XGNGjUEHwSM/GHkGUiABEiABNJDgMY9PVxtc4UxjyUPa5swhQ8wWu/Tp4/UqlVLhg8fLr169Qoz7qjj974XPqkDt7kYpWMqf+/evdK4cWN54IEHwuJFS2em9BcuXKij/hQ2g1mRAAmQAAnYEAj/P7hNJN72F4FOnToJpuYLCgrUUGOTmzVg6h275bHxLjJUrFhR8Ln99tsjH6nxjky3ZcsWgRoe1vnNyL1du3ZyzTXXXJSeN0iABEiABFJDgCP31HDMqVzy8vKkd+/eKjt7/vx5WbNmTVj9X375ZbnhhhtkxowZujY/bNgwFbuB+A2m8xEwtY6A9CZES/fJJ5/I9OnTdXf+3LlzNSpG+Fi/ZyABEiABEkgPgUuqVq0a078s1oczPY2cnqZ/l6vX7fO6PDt2GH2XKVNGDh48aBcl6n3I1hYtWlTX3aNGiHETR++QFjMGDCRAAiRAAukjwJF7+thmJGdMty9evNi27JkzZ8qmTZvk2LFj+rGNaPPg5MmTNk+cb5vRvnNMxiABEiABEkiGAI17MvSyMO0XX3yhjmjsqnbkyBG7R7xPAiRAAiTgEwI07j7pSGszrAY8W5YBrPXjNQmQAAmQQHoJ0Linly9zz1ICOMoHL33bt29Paw1/8pOfiDnr/9JLL+WsVz7s0ShSpIh89tlnaeXFzEmABFJDgMY9NRyZSxIEbr31Vj1eN3/+/CRyCU/qlGe3bt2kWrVqaTfuOE4IQR243cWeA+usSniNs/fXU089pRshUUM4L3qiUFPgxRdfTLrCTn2UdAHMgAQCTIDGPcCdny1NhztbNyp0servlCd85BcvXjxWFil5Zlz7rlq1KiX5ZSITtGHz5s167BGCQ3CAlArj7tRHmWgryyQBvxCgcfdLT2ZBO2AEXnnlFWnbtq2ULVtWj7xBUQ4+5aEoZ1WFW7ZsmarJDb7jDin+Lxe2TxaOCBHu/M1vVKzGLh3iQFUO/urhux4ufZ977jlZsWKFY56Yjh83bhyyUL/5EydO1Gv8weh6zJgxWvdvvvlGyzBGzK68UGIXF7Had++994YU+ODnH6PldevWaSnwFjh69OgwVb8JEybos8g8odpnFPhipYtVfVMu4kAkCAwx6+E0C2FXHtQHY/V7rLrwGQmQQHwEaNzj48RYcRDAGvbNN9+sU92vvfaaGickmzJlisBY4hgeDCg85G3YsMFRTc4uHYwKzuhDzQ7H/q6//nr1xQDj7qRQB0c8yBejz0IfD2GtgkGFmM7s2bO1HfCq9/bbb+uLhl15YRkk+CNW+7788kuB0x9M5UOBr2/fvrJ161Zd8x44cKCULFlSX0Ssqn4oPlqeRoEvVjqnqt900036IvXDH/5QHRo5GXbkZ1eeUx851YXPSYAEnAnQuDszYowECBw4cEAg8YqAqVyMrGH033333YtU4ebMmaOjZ4jIwEhZFeic0iF/uLaF4YLs7KJFi3RtG37vjUJdZJ5IgwDf+idOnFAD+d0dkfr160uJEiUEPvBff/11NeqPPfaYwFXuk08+qdGilYcZilatWpls1OsffkAed8mSJaH7kRdO7YMHvwoVKmjexj8AfPtjQxvkeBHwwoS2oj0I0fKE618o8IG1XboWLVo4tgEvUJhGhxOit956S8tz+oPyjPqgtZ5I59RHTnnzOQmQQGwCNO6x+eT8U/zPNRXrvfGq0EX+j9/sFE9UFS6edBiFI0ClDuHyyy/Xbzd/MM2M8N577+k3Rs5QzLOO7qOVh+fYMAfOCHCti+Dk7MepfXDZCwU+OBuKVOCLpuoHF8JOedqlq1mzpmMb8vPztV09evQQfOAI6dChQ3rP7o8pDzMhRn0w0tWxXVreJwESSI4AjXty/LI+NYxNvIY5FY3BiNga4lGFc6smZwyptTxzHS1P8yza99GjR/U2RsfmulixYvL555+Hokcr79lnnxV8nALSYmbAhFhcsFaNmQQ7BT6j6of1dexp6Nmzp+oDIE+UY6fAZ5cu3jag7lhOgXFv2bKlPP3009ocTL/DtfD69et16cC00a488zzRPjLp+E0CJOBMgKpwzowYIwkC0VTh2rdvH6YKF02FLp50saoVLc9Y8TGdDxEcTGFjOhxSuAhYWkhFwBr1jTfeqHkjv3jah7PlqEukAl/nzp1V1Q8jZ9TbqPohT1z369cvpMBnZW2XLlb7rrrqKmWCWRHMbmC3PML7778fSta6dWtp0qSJfkI3Cy+cyku0j6x585oESCA2AY7cY/Ph0wQJWFXiTFKjCofjZwiIY1WFM2py2HCH6e2hQ4eKVU3OLl1kWdbfdnlikxqmoU2ABz9Me2P0+/DDD8ugQYN0/R7PX3311bB9ANb88TzyN+7ZhaVLl2q7sDcABhmjcjsuMHpYAjCGFCwQTHkdO3YMqfrBmFunuiPzxHNMiyPESqcRovzBRkKM1HEmHeGf//ynjtDNOr81SeTMhlN5dn1kzZPXJEAC7ghQFc5j1Tuv3cF6XV6sf4YY+WFDltNabWQebtNF5hPvbzieSVQtL968o8Wzax8264GXdWnApMeIHs/t6mmXp1M6k3/kN/JDiGeXvDUtysMLwkcffWS9zWsSIIE0E+DIPc2Amf0FAokaBpPSbTqTPtFvO4OZaD7xxrdrH04R2AVsIjQbCaPFscvTKV20vHDPLj+7+Oa+2/JMen6TAAm4I8A1d3fcmIoESIAESIAEspaAo3GPXEfL2pa4rJjX7fN7eS67gclIgARIgARSSMDRuJvzuyksM6uy8rp9fi8vqzo3RmWSORMfI1s+IgESIIGsIOBo3LOilqxEzhP45S9/qbvFE22I23R25TRo0EDgwx671p955hnp0KGDXdSE7qe6ngkVzsgkQAIkEEGAxj0CCH+mhwC8uMF9aaLBbTq7ciAac+LkSRkwYIBuEoP/+FSEVNczFXViHiRAAsElwN3ywe37lLYcx8dwLhueyhBwDhouS6EANmTIEIG3N4SVK1fqNzyrwaMa1OKuvfZaPfJ1plD9bEXhqBpKZk7p4J1t/PjxYUpzRv1MC4jyB65iy5UrJzhzDreumJrHMkleXl5IcS1KMr3ltn12+fE+CZAACaSTAI17OukGKG+MgCEQA+csVqUyJwUwCKzASY1RP4N3NQjBOKWDOA38lcMZDpTm4A3NqJ/ZYccLAQKcyAwePFgV4PDSYXVqY5fWbfvs8uN9EiABEkgnARr3dNINUN6XXXaZKwWwWOpndsphUD8rXbq0unCFwcZ5cBh6uI6Fu1irSpvpArxEfPjhh/oTjlXglhXa7dBzx2jeKbhtn1O+fE4CJEAC6SBA454OqlmU544dO8JU4dzu1u/SpUvMVhkFMBhrowC2du3amGnwcNq0aap+BmcnkepndoljqZ9hFB5tbR8qbWCBAKMObXS8PMADnJOCG9K4bR/SMpAACZCA1wRo3L0m7nF59913nyclGgWwWrVqqehKr169xGrccb7/e98L378J9TOosNmpn6Hi0dLFUlRDGjuVNiPfimWDqVOnqvtWGPePP/4YyTRgo51ROMPygAlu2mfS8psESIAEvCYQ/n9br0tneb4h0KlTJ1UqKygoCFMqMw2MpQAG9TN8ItXPkDZaumiKau3atQtTmjPlWr/xUoBRunHrCqlSvDysW7cuFA0b+TDtj481JNM+az68JgESIAEvCHDk7gXlAJSBHee9e/dWYwn1MqtSGZofTQEMYiJQPxs5cqQSwqY6BKN+huto6ayKcVB5Q4CRtirN6c0of7AMgF38q1at0j0CdjvskZ81uGmfUXOz5sNrEiABEvCCAFXhfK4K58U/IlMGRt9QAEtUeAUb2jA9HksIxZQR+Y0pdKTFjEEiAUsCiSqVuW1fIvViXBIgARJIBQGO3FNBkXkoAZwdxyfREM+GNrs8zWjf7rnd/UQNO/Jx2z67OvA+CZAACaSLANfc00WW+ZIACZAACZBAhgjQuGcIPIslARIgARIggXQRoHFPF9ksybdx48byox/9yHVtevToEZeTF9cFMCEJkAAJkEDKCdC4pxxpdmXYrVs36dOnj+tKwbgbt62uM2FCEiABEiABTwlwQ52nuL0vDH7bixcv7n3BLJEESIAESCBjBGjcM4Y+vQVjOh6qaQhws4qz3SbgbPeePXtCjlqee+45eaJQjQ0BftmHDh2q4i8ffPCBSaLfdkps0EjPnzBBpk2fri5ecWQMZ85x1j3yvHtYhvxBAiRAAiSQFgKclk8L1sxnCucwUE47cuSIVKlSJaxCOIverFkzlT5FvK5du4aeQ571iy++kIceekiMu1bzEPnBdSsMN5zLQImtWrVqsm/fPtm5a5f6bEdcuLyFf3kadkOO3yRAAiTgLQEad295e1oa/KGfOHEiaplw4QqJVEzbQ0ymYcOGUqlSJSlZsqQa9tdff11WrFgRSmuU2DDij1RiQ6RJkyaphOoThWnwUgCddgYSIAESIIHMEOC0vMfcYUjh+jTZYB1tu8kLI3YE4xXu8ssvV3U23IPeOcL777+v3/gTS4nNRMLUPvy1Q3DFrXMZkxe/SYAESIAE3BOgcXfPzlVK+CxP1jC7KjgiUaTvdDyGSAtCnTp11IWsMei456TEhjjwLQ9vcy1atFC1t8g1e8RhIAESIAESSD8BTsunn3HOlACXrFgrh5HGpjgcozPBSYkNgix4YbjtttvkwIEDYRv4TB78JgESIAES8IYAjbs3nD0vZc6cOTr9f9111+mmNywFLF++PFQPq/IabprfqwuFdJDmkUceUQnXUILCi+mFu+Eh1AIlNuQ3ePBgjYOZCOiymx35v/3tb6VYsWJy//33W5PzmgRIgARIwCMCVIWjKlzUf2o1a9aUjz/+OOozt0psUTPjTRIgARIggZQT4Jp7ypH6I0M7w47WcbOcP/qYrSABEvAvAU7L+7dv2TISIAESIIGAEnA07tF2VfuJldft87q8VBy781N/sy0kQAIkEAQCjsYd57L9HLxun9/Li/VvBWfp0xFatmwp3bt3142D6cifeZIACZBArhHgmnuu9VgO1he+5yfm50vxQte1mLlYtGiRbNiwISUtWbp0qbrEhTMeON+Bu10GEiABEgg6AceRe9ABsf3JExg3bpycKHRuM2DAADW+/fv3Tz7Twhzg1758+fJy9913q9jNO++8k5J8mQkJkAAJ5DoBjtxzvQezvP7wM1+uXDkVqTl27Jhgah5LE3l5ebJu3TrH2kOhrnXr1npu/vTp03p2HkI1y5YtUz/4yGDq1KmCxaN58+fLpk2b1Pc9FPEqV64s586dk/Xr1wuU8BhIgARIICgEaNyD0tMZaidEZhAwZQ6nN2fOnFFDjXP0TgGe8tq1a6cG+/nnn5c2bdroSB3p4CCnUaNG0rdvXzXuMPyQtkWAeh087UG9DnGgXgeRHE7ZKx7+IQESCAABTssHoJMz2cTLLrtMi69QoYK0b99eDe/Zs2d1NO9UL8SHQZ4xY4bKyi5evFhFaZBu//796uYW15iON4bdSb0O8RlIgARIwO8EOHL3eQ9jCjwVx+Hcit1AGx5hzJgxsnXrVjXCRYsWVYEZJ/SlSpUS+LRPJBixmxo1agg+CHC6c+rUqUSyYVwSIAESyGkCNO453X3OlcfudLeG2Tl35xiHDh3SSJcW7pTH2njZsmUFxt3qAQ8b7eDSFmvjkIs1AVP49evXNz/j+o5HvS6ujBiJBEiABHKYAKflc7jzcqHqMLaQgTUjZ+i944XDupkOa+mYTsfHGnbs2CEYiXfo0EFvN2/eXBo2bGiNctG1k3rdRQl4gwRIgAR8SIDG3Yedmm1NghwsdsxjeaBVq1by2GOPRa1ipPc+qNAdPHhQj9Ah7dixY6VMmTJR01pv2qnXWePwmgRIgAT8TIDT8n7u3Sxp2+7du9WDXO3atQWa8ZGhV69ekbdCv++66y69rlevXmgDnXmIfLt06WJ+hr4xtd+jRw+d6scSQEFBQegZL0iABEggCARo3IPQy2lsI3bDYxe7XcBO982bN+vjaIbdLl3k/QMHDkTecvxN9TpHRIxAAiTgUwI07j7tWK+ahd3wcDRjF2hg7cjwPgmQAAmkj4CjcY9cB01fVTKTs9ft82N5NOCZ+bfLUkmABEjAjoDjhjqvVczsKpqu+163z+/lxeonqsLFosNnJEACJJA6Ao4j99QVxZyCSoCqcEHtebabBEggUwQcR+6ZqhjL9Q8BqsL5py/ZEhIggdwgwJF7bvRTztYyWVW4YcOGhanCTZw4UV3YxlKFw5G70aNH61E4gNu5c6dMmDAhZxmy4iRAAiSQKAEa90SJMX5CBJJRhbvtttukbdu2YapwRogmliocvOCVLFlS/dnD7W2zZs0SqjMjkwAJkECuE6Bxz/UezPL6G2NsVOEgIIPRNzzWOQXIvRpVOMSFjrsJUIWD4UaAKpw1lC9fXjXj4ZseanEYuTOQAAmQQJAI0Lj7vLeDpgqH7lywYIGMHDlSZs+erbruK1eulDVr1vi8p9k8EiABErhAgMb9AgtfXuFcfZBU4dCJGKn36dNHsCQwYsQI6dmzJ427L/91s1EkQAJ2BLhb3o4M76eEQCpU4W666SatS4sWLRxV4RCxc+fOguUAyM3u3btXzp07l5K2MBMSIAESyBUCHLnnSk/lcD2hCpefn6+qcFgmePTRR6O2JtJ7H9TdZs6cKf3799cPnk+aNClqWuvNjh07Su/evVVaFoadU/JWOrwmARIIAgEa9yD0cobb6LUq3IABAwQb+CAPm4xYTYaxsXgSIAEScE2Axt01OiYEAUx/L1myxBYGVOE2bdqkz5MxtImqwh0/flzwYSABEiCBIBKgcQ9ir6ewzVCFGzJkiG2OFJWxRcMHJEACJJA2Ao7GPXIdNG01yVDGXrfPj+XRgGfoHy+LJQESIAEbAo675b1WMbOpZ9pue90+v5cXq6PSoQrXuHFjwS56BhIgARIggQsEHEfuF6LyigTcEUinKly3bt2kWrVqsn37dneVYyoSIAES8CEBx5G7D9vMJnlMIF2qcGjGvHnz5L777vO4RSyOBEiABLKbAEfu2d0/OV+7ZFTh6tSpI6NGjQpTd8N5eQRMx+OlAQH+4+GvnoEESIAESOA7AjTu/JeQVgLJqMLBeU2pUqVk7NixKhJjVXfD2fkpU6aom1m8QDCQAAmQAAlcIMBp+QsseJUGApGqcJMnT5azZ8/GpQqHtNiACHU3+Itfvnx5WA1x78SJE2H3+IMESIAESECEI3ef/yuAcVy9enXSrezSpYurPHAOHgFSr1u3btUp9KJFi8rJkycd8zPqbrNmzQqpu61du9YxHSOQAAmQQNAJ0Lj7/F8AztW7NcypQAPxFgRor0+dOlXKli0rMO4ff/xxKHu4i61evbqsX79etm3bFrpv1N1q1aolw4cPl169egmNewgPL0iABEjAlgCn5W3R8EEqCCSjCtepUyd1b1tQUEB1t1R0BvMgARIIDAGO3APT1ZlrqFtVuLy8vJC62/nz58PU3ebMmSM1a9bUNXm0bNWqVXL69Gkd3WeupSyZBEiABLKDAI17dvSDr2vhVhUO0/UVK1ZUdbeDBw+GMcI0PQMJkAAJkEB0AjTu0bnwbpwEsKN98eLFtrGhx56MKtyxY8cEHwYSIAESIIH4CdC4x8+KMaMQcFKFO3LkSJRUvEUCJEACJJBOAjTu6aQbkLxpwAPS0WwmCZBAzhDgbvmc6SpW1I5Aq1atpEePHiogYxeH90mABEggSAQ4cg9Sb2eorXBBO2jQIGnUqJHgWNudd96ZsposW7ZMSpQoIUePHpU9e/YIZxFShpYZkQAJ5DABGvcc7rxcqTqOwn399df6KVKkSMqqDanXcuXKqYMb4ywnZZkzIxIgARLIYQI07jnceblS9QkTJqjb2dmzZ0uixn3o0KHSunVrKVasmJ5jv//++2Xfvn3y6KOPSsmSJRXBgw8+qN+Qf33zzTcFMwXjx4+XypUry7lz59TzHeIzkAAJkEBQCNC4B6WnM9hOSLK6Cb1795Z27drpUbrnn39e2rRpI+XLl9esoOGOaf6+ffsKxGjgwMaUg9/ffvutwCc94nTu3Fk2btzIKXs3ncA0JEACOUmAxj0nuy0YlW7fvr0a5BkzZmiDMWI3Yf/+/eqvHr/feecdc1uaNm0qpUuXli1btugI/tSpU2rou3fvLvBqx0ACJEACQSBA4+7zXoYqHFyzJhu6du2abBYJp4eWO4x0IqFu3boavUaNGoIPwuHDhwVGnoEESIAEgkKAxt3nPQ1VuEwY5kSwDhw4MKQKB1lYE6DjXr9+ffMzrm8I1SAsXLhQdu3aFVcaRiIBEiABvxHgOXe/9WgWtgcuauvVq6dH1iD9imuzdo7qYsNckyZN9GOt/o4dOwQj8Q4dOujt5s2bS8OGDa1RLrrGSP/s2bPSv3//0Mgd6/bXXHPNRXF5gwRIgAT8SoDG3a89m0Xt6tevn0yfPl2qVKkilSpV0mvciwyYZbAGpIFgDARksLQwduxYFZGxxol2jXTQh587d66mGzx4sErHRovLeyRAAiTgRwKXVK1aNfz/qBGtXL16tXTp0iXirn9+et0+v5eXrn8ZGO0fOHAgoexh4IsWLaqOcxJKyMgkQAIkkOMEuOae4x2Y6eo7qcJhp/vmzZuTrmaihh0FYiMdAwmQAAkEkQCNexB7PYVthiocHM3YBRpYOzK8TwIkQALpI+Bo3CPXQdNXlczk7HX7/FgeDXhm/u2yVBIgARKwI+C4oQ7npP0cvG6f38vLxL+Vli1bCpzUwNc8AwmQAAmQgIjjyJ2QSCBZAulUhVu6dKl6qjt+/Ljs3buXLmaT7SymJwES8AUBGndfdGN2NwLCLvD9DmW4RIVjYrUMI3Wclx8xYgR3xMcCxWckQAKBI0DjHrgu977B9957b8pV4aDjblThpk6dKlg8mjd/vorM1KlTR0aNGqVn3dHanTt3Sn5+Pi4ZSIAESCAQBGjcA9HNmW2kUWtLtBaxVOEg/WpU4WDcrapw8E4Hv/RwegOPeM2aNUu0aMYnARIggZwmQOOe093n78q7UYUDEZy9x8ZF+KbHiwVG7gwkQAIkECQCNO4+720YuSCpwqE7FyxYICNHjlQ9d+i6r1y5UtauXevznmbzSIAESOACARr3Cyx8eYVz9dmuCgff8XAVu379etm2bVuoH9yowiExRup9+vSRWrVqyfDhw6VXr1407iGqvCABEggCAcdz7kGAwDaml4CTKlybNm2kadOm+rHWxI0qHNJ36tRJp+YLCgr0eNy5c+es2fKaBEiABHxPgCN333dx5hsIBbj/9//+X6giOBr35ptvysyZM0P3cBHpvQ/qboiDkT02yeH55MmTw9JE+5GXlyfYjIf458+flzVr1kSLxnskQAIk4FsCNO6+7drsaRjEY/CxC5g2twt33XWXPoqmCrd79+6oioV4GahYsaLKw0IyloEESIAEgkaAxj1oPZ7i9marKtyxY8cEHwYSIAESCCIBGvcg9noK20xVuBTCZFYkQAIkkCICjsY9ch00ReVmTTZet8+P5VEVLmv+ObMiJEACJKAEHHfLe61i5nW/eN0+v5fndf81btxYWrRo4XWxLI8ESIAEspqA48g9q2vPyuUEgXSqwnXr1k2lXrdv354TLFhJEiABEvCCAI27F5QDXsa0adNUES7VqnDAOm/ePClevHjACbP5JEACJBBOgMY9nAd/pYHAhAkTXKnC1a5dW0aPHh2m7oa8EDAdP27cOL2G//iJEyfqNf+QAAmQAAmI0LjzX0HaCbhVhRs4cKDKuo4ZM+YidTeccZ8yZYq6ma1atWra28ACSIAESCCXCNC451JvBayu5cuXj6nuBh/yJ06cCOm6BwwPm0sCJEACtgRo3G3R+OMBduevXr061Bi3R/EyIT5j1N1mz54tRt2NrmRDXckLEiABErAlQONui8YfD2DMu3TpktWNsVOFM+pu2G0/YsQI6dmzJ/3EZ3VPsnIkQALZQsDxnHu2VJT1yF0CblXhOnfurOpuhw4dorpb7nY/a04CJJABAhy5ZwB60IqEKlyrVq10/Rxth9rbpk2bHFXhOnbsGFJ3g2yrdUp+zpw5UrNmzVCeq1atktOnT6t2e9D4sr0kQAIkEEmAxj2SCH+nnIBbVThM11eoUEHV3T766KOweg0fPjzsN3+QAAmQAAlcIEDjfoEFr1wQwJT7kiVLbFPCsGOU7jYcP35c8GEgARIgARKInwCNe/ysGDMKAajCDR48OMqT724dOXLE9hkfkAAJkAAJpIcAjXt6uAYqVxrwQHU3G0sCJJADBLhbPgc6yQ9VLFeunFSqVCktTWnZsqV0795dBWTSUgAzJQESIIEcI8CRe451WK5VF17mIO5SqlQprfqXX34py5cvlz/96U8pacrSpUvVNS3W5ffu3SucRUgJVmZCAiSQ4wRo3HO8A7O9+kWKFBH4gX/yySfl1KlTKvbSv3//lBj3atWqCV4e4OCmoKAg21GwfiRAAiTgGQEad89QB7MgjKgnT54cavzTTz+tSm8NGjSQffv2he7bXQwbNkxat24txYoV03PsUH+DEM2yZctCPuWnTp0qlxRmMG/+fN2ZD49299xzj1SuXFlwPn79+vUa364M3icBEiABvxGgcfdbj2Z5e2Coz58/H5dhv+2226Rt27ZqsJ9//nlp06aNeqxDE++//35p1KiR9O3bV2Dc4cDGqM9BLe6bb75RJzmI06lTJ9mwYQOn7LP83warRwIkkDoCNO6pY8mcHAg0bdpUPdU9/vjjDjG/e9yuXTs1yDgrj2Ad6e/fv1/X2nH/nXfewZcGlIH1/XfffVcwgsdSAERnsOEOXu0YSIAESCAIBGjcfd7LUIWDa1YT8NtNSFZ8pk6dOjpVvmPHjjCVulh1gZHesmVLrCgXPatbt67eq1GjhuCDcPjwYTXy+oN/SIAESCAABGjcfd7JUIXLhFyrFWvFihV13R0uZO+77z7rI70eOHCgVK9eXdfGt27dGnp+5swZqV+/fuh3PBeffvqpRlu4cKHs2rUrniSMQwIkQAK+I8Bz7r7r0uxrEPTY8ZLxyCOPqLGONNhYh2/SpIl+rLXHKB8j8Ztuuklvt2jRQho2bGiNctE1Rvpnz54V7Mg3I/f27dvLNddcc1Fc3iABEiABvxLgyN2vPZsl7YJRLV26tNZm0qRJoVrNnTtXXn311dBvXOAFwBqgHjdz5kw11DDWeG7NwxrXeo10o0aN0vP1uI8NfLNmzbJG4TUJkAAJ+JoAjbuvuzfzjcPUuNN6fa9evWwretddd+mzevXqyYEDB8Li4fx8tLy3bdsmPXr0UI91RYsWFejBM5AACZBAkAjQuAept9PQ1nSrwpkqRxp2cz/WN73VxaLDZyRAAn4mQOPu5971oG1QhRsyZIhtSdipzkACJEACJOAtAUfjHrkO6m310l+a1+3zY3k04On/d8oSSIAESCARAo675d2ei06kEpmM63X7/F6eXV9SFc6ODO+TAAmQQOoJOI7cU18kcwwSAarCBam32VYSIIFsIUDjni094dN6UBXOpx3LZpEACWQ1ARr3rO6e3K9csqpwQ4cODVOFg2AMfMzHUoWDq1ucc4fXO4SdO3dKfn6+XvMPCZAACQSBAI17EHo5i9qYiCpc7969BeIxmzZtEqMKh2l+hFiqcHB4A7/0Y8eOVXGZZs2aZREBVoUESIAE0k+Axj39jFnCvwgkqgoHt7E4q56IKhyKwtl7bFyEb3rIwGLkzkACJEACQSJA4+7z3oaRs6rCuW1usuIzXqnCoX0LFiyQkSNHqstZyL2uXLlS1q5d67bpTEcCJEACOUeAxj3nuiyxCuNcfbKGObESL47tpAo3YMCAkCocXMea4EYVDmkxUu/Tp4/UqlVLhg8fLnBvS+NuqPKbBEggCAQcz7kHAQLbmF4CTqpwbdq0EUzZ42MNRhWuQ4cOert58+aOqnCI2KlTJ52aLygokL1798q5c+es2fKaBEiABHxPgCN333dxZhuYClU4jOyNKtzkyZMdG5SXlyfYjIdZCyjCrVmzxjENI5AACZCAnwjQuPupN7OwLZlQhcPLAJYCypQpIwcPHsxCKqwSCZAACaSXAI17evn6PnfsTF+8eLFtO7HTffPmzbbP432QqCrcsWPHBB8GEiABEggiARr3IPZ6CtsMVTg4mrELFJWxI8P7JEACJJA+AjTu6WMbmJxpwAPT1WwoCZBAjhDgbvkc6ahcr2a6VOEaN24sLVq0yHU8rD8JkAAJpJQAR+4pxcnMIgmkWxWuW7duUq1aNdm+fXtk0fxNAiRAAoElQOMe2K73puHpVIVDC+bNmyfFixf3pjEshQRIgARyhACNe450VK5WMxlVuNq1a8vo0aPD1N0mTJigKDAdP27cOL2G//iJEyfmKiLWmwRIgARSToDGPeVImWEsAomowg0cOFBKliwpY8aMuUjdbffu3TJlyhR1M1u1atVYRfIZCZAACQSOAI174Lo8cw1OVBUO6/Wx1N3gQ/7EiRP6ApC5VrFkEiABEsg+AjTu2dcnKa1RpCocfrsJXbp0cZMslMaNKpxRd4NveqPuRleyIaS8IAESIAFbAjTutmj88SAXVOEw/V69enVZv369bN26NQTeqLt9//vflxEjRkjPnj3pJz5EhxckQAIkYE+A59zt2fBJigg4qcJhHb5Jkyb6sRbZuXNnVXc7dOgQ1d2sYHhNAiRAAg4EOHJ3AMTHyRFIRhWuY8eOIXU3yLZap+TnzJkjNWvW1DV51HDVqlVy+vRp1W5PrsZMTQIkQAK5T4DGPff7MKtbkIwqHNTdKlSooOpuH330UVg7hw8fHvabP0iABEiABC4QoHG/wIJXLghAFW7JkiW2KaEKt2nTJtvnTg9wTh4fBhIgARIggfgJ0LjHz4oxoxCAKtyQIUOiPPnuFkVlbNHwAQmQAAmkjYCjccduaz8Hr9vnx/JowP38XwjbRgIkkIsEHHfLuz0XnSswvG6f38vLlX5nPUmABEjAzwQcjbufG8+2BZPArbfeGnMpwS2Vtm3b6q594//ebT5MRwIkQALJEnCclk+2AKYngWwjcPXVV0ulSpVSXq1BgwZpnl7PzqS8IcyQBEgg5wnQuOd8F2ZHA+BedtSoUWEKbvn5+Vo5eJgbP368VK5cWXBeHZ7oHn30UX3WqlUrGTZ0qBQrlG3du3evXHHFFRr3Rz/6keCce+nSpXW3PKRjSxWKyDxYuPv+r3/9q8TKE3nv2bNH4Mse4bnnnpMnnnhC2rRpI4PvuEOKX3qp3n+y8B7Cnb/5jXz66acSqw0aMcYftA/H9dBGBhIgARLINAFOy2e6B3xSfv/+/aVUqVIyduxYgVHfv39/qGWTJ09WVbdZs2bJyy+/LPA8V61aNX0+ePBg+bxwx/1DDz2kLwYlSpRQIZjLL79cv//whz/oKBuG/9PPPpMePXpoulh5lilTRpo1ayZLly4VqMd17dpV07zxxhvy34WSsR9++KF8/vnneo3fMOwIsdqgEWz+wFEPyps6dapNDN4mARIgAW8J0Lh7y9u3peG8O6ajz5w5I/AJv3z5cm0rRs8YfWMkjdH2qVOnVASme/fuUqVKFX0hmDt3rsDwrlixIowPjtm98sorghMGr7/+urz//vvq0CZWniaDLVu2yMaNG2XevHlar4YNG+ojaL+jDl9//bXgGh8T7Npgntt9//a3v9V6Hj161C4K75MACZCApwQ4Le8pbu8Lg8GFa9Zkgxn92uVjFNwwOjcKbmvXrpW6detqkho1agg+CDg6BwPbvHlz/Q2jjYDRuTWcPXs29BMvDd98840ULVo0Zp4mAUbsCMYBDmYCnIJdG2Klw0tK2bJl9cUDSwzFC5cXsJ7fuHFjnTWIlZbPSIAESCBdBGjc00U2S/LFqNfJMKeiqkbBrVatWgLXsL169RIYdzPlvXDhQoErWmswU/MNGjSQffv2Sf369a2Pba9j5WkSxfIngGff+97Fk1Z2bTB5RvsuV66c7iPA8gLyLVasmC4v9OvXT0aOHBktCe+RAAmQQNoJXPx/uLQXyQL8SKBTp06q4FZQUBCm4IbpcYzAsZ5tRu7t2rUTrFMfOXJEp8dhGPH7V7/6VVxoYuUZTwZ4ycDoGhvorMGuDdY4kdeLFi0SjN7xwX6AkydPynvvvUfDHgmKv0mABDwlwJG7p7j9W1heXl5Iwe38+fNhCm7Tp0/XnfRYW0fACBfT9wgY0d9RuIP9vvvuE7wYIGAK3hoQH3ni24RYeSIO4luD9Tc29d1www0Cv/dYthg2bJh88sknEqsN1rxiXVvrGCsen5EACZBAOglcUrVq1Qv/x4xS0urVq6VLly5Rnvjjltft83N5FStW1A1vBw8ejPqPo3r16rpmbox4ZKQbb7xRR/gYBccbnPKMNx8Tz6kNJh6/SYAESCCbCXDkns29k2N1O3bsmOBjF6L5oL/33nt1x/xXX30lTZo00Z32dumj3Y+WZ7R48d6LbAN20C9evNg2OUb/mzdvtn3OByRAAiSQCQI07pmgzjJDBNatWyc//elPdUQ/ceLEizbdhSJm6ALH8YYWOtmxC6l+ubArh/dJgARIIBECNO6J0GLclBP429/+Jvhkc6ABz+beYd1IgASiEaBxj0aF9zwngHPh8HC3ffv2tJb9k5/8JHRO/qWXXtId+8kWiPPtp0+flh07diSbFdOTAAmQQEoI0LinBCMzSZZAt27d1CVtpHGHghs2uc2fPz/ZIjQ9jr/BW12jRo3UmQ6O4yUbevbsqXsNaNyTJcn0JEACqSJA454qkswnKQJwEwvvbpEh1Qpuxi1uKrz2RdaVv0mABEggWwjQiU229EQO1wOKa9jpHhlw/wc/+IHehlG97bbbVA0OxwEhFIOA6fjHH39c5syZIwMHDtR7+AMFN6i2XXvtterxDdf4FB7d1DjwUw93sTDSf/zjHzXvUGKXFxjNQ1EO9Vu5cqXcdNNNYTnhPPxTTz2lz1Hnq666Kuw5fpj2/OIXv7joGW+QAAmQgFcEaNy9Iu3jciDjev3114e1EOIuUHiDS1cErKfffPPNKiDz4IMPhvyuwwf8lClT1E2tMdyI76TghjQY6c+cOVOwdg7vcsadLdK7CTiWB2c3s2fPVoc68Kpn6oQXk7Zt28rWrVtlzJgx8pe//EU98lnLwYsMdvxjg+CaNWusj3hNAiRAAp4SoHH3FLc/C4OEKqbPETCK/vGPfyw//OEPBWfXreHAgQMCqVacC3/44YdDj/ACcOLEidBvc2Gn4IYXB7wsRFOaM2kT/YZfe7yMPPbYY6pAByONAFe55hvr8zjXDj/4OPu+bds2fYY/mEmA1O3bb7+tcUIPeEECJEACGSDANfcMQPeySGzywjRzsiGWl0KMVLEhDtPYUG1r3769VKhQQf7+97+HFfvWW2+F/Xb7I5bSnNs8zagffuERvvzyS1W3MyN3vEzAp71dKF++vPrQj/RXbxef90mABEggnQRo3NNJNwvyhs/2dAeMxLFjHM5oMJ2OUXuRIkXk6aefDis62ug8LEKUH/DVHqngFo8qHNbv4Zp2/fr1OpUemTXyxUjdBKPFfuWVV4q5hsLb559/rlHg7z6Wat3+/ft1DwB83t9+++0CQRkGEiABEsgUAU7LZ4q8j8rFdDWU36644gpZtmyZGnYYzlSM1KMpuEVThcNsAZTlTGjdurVu8ou20Q9xUGf4sscxOwRoyWO9HX7tMesA2VoE41oWMyCYMTCb7Fq0aKFH6jRS4Z+vv/5aYOCfe+45+fnPf65H7cwzfpMACZCA1wRo3L0m7tPy4MUNU9kY6WKtHMY+8gy5VZnNYMAueex4v+6663RDHK7NcTXEgYLbZ599puvYeGZkYzFCxsgcR+iw7ABlOfiBjwx2Km1Lly6VsmXLyiOPPCKTJk3SZNgHgGl1jLqhGvfqq69qW/AQ5UEQB5vsUN7YsWNVJCeyPLzcoN333HNP5CP+JgESIAHPCFAVrvB/1LHWk1PdEzAMXpaX6vpnW35YK8c6/6FDh1JWNRh4O2U7FFKvXj3B5kAGEiABEshWAlxzz9aeYb3iIhA5OxBXIodIsQw7ktKwOwDkY13cnpcAAEAASURBVBIggYwT4LR8xruAFSABEiABEiCB1BJwNO52a5aprUbmcvO6fV6XlzmyLJkESIAESCBTBByn5S+55JJM1c2Tcr1un9fleQLRoZB0KLE5FMnHJEACJBBoAo7GPdB0crzxqVZUc4sjHUpsbuvCdCRAAiQQBAI07j7u5VQrqrlFZY624SgbAwmQAAmQQPoJ0Linn7HnJUBRbXDhue/il16qZUNNDeHO3/xGBVpwDR/qr7zyioqh4Lw3jpKNGDFCz2dDiQ3Hy84UOmZZUZj2hRdeQBJVTIM/d/h2R4DDFii/IWB0PmrUKD17jt/wF5+fn4/LmAFKbHfffbeeOf+m0Avco4X12rBhg6Zp1aqVDBs6VIoVCsTAyQyc5IwfP/4it7YxC+BDEiABEgggARp3H3Y6XMDiiNigQYMEPs+nTp2qrTRuW/GjdOnSqqS2fft2ee2111RaFfch9gLHMHBKc8stt0i/fv1UIAWOZMqUKSPNmjVT0RSowHXt2jVk3OHcBf7X4dzl0sKXCsSLJ8DZyzfffKMSsFCNGzBggKqqoa6DBw+Wz7/4Qp588knp06ePuostWbJkPNkyDgmQAAkEmgCNu0+73yiqwdDiOlowKm14Ztyszpo1S92vYtQMA48Af+sw7ghw/bpx40Y1+PDk1rBhQx1VwzscNgvCBzvKM1KvmsjmD3y1w1gjn9dff12NOvTUocSGWQW8LPzud7+T999/X+VdhwwZYpMTb5MACZAACVgJ0LhbaXhwDR/lqVh7xqg52RDN9/u0adPUA9vx48fl9OnTWgReEEyA/joCniNcfvnl+r1gwQIZOXKk4OXg22+/lZUrV8ratWv1md2fSCW2U6dOhZTYmjdvrslg2BEwLc9AAiRAAiQQHwEa9/g4pSyWFyptprI4Ux+pqGae4TtSpa127do6SsfUOoxp48aN5YEHHgjLw+6cPkbqmDqvVauWiq706tXrIuOOtPEqsUFGFqFBgwaqnx5LkU0j8g8JkAAJkECIgKMTm1BMXuQcgWiKavE0Akpp+EC6NN7QqVMnFW4pKCjQF4Nz585dlBT7AOyU2FDesGHDNA2WCBAXSmtYd4fa269+9auL8uMNEiABEiCB6ARo3KNz8cVdO0U107hIlbaPPvpIMO2O6XWopRUv3KWOYI1nvbY+y8vL0412zzzzjPzsZz+TNWvWaFrrn1hKbCivbdu2YUpsCxcuVBU4zHb885//1Kywps9AAiRAAiQQmwBV4ajSdtG/kHLlyulROLOuflEEmxsYfWNHvZPwSrTk0Er/8MMPoz3SexjxY0c+9NYZSIAESIAEYhPgmntsPoF8evLkSVftPnbsmODjJkQz7Pfee6/umMfxvCZNmsS1A99N2UxDAiRAAn4jQOPutx71UXvWrVsnP/3pT3UWYeLEiYI9BAwkQAIkQALOBGjcnRnldIzVObzsgB3zZtd8TncCK08CJEACHhOgcfcYOItLP4FMqNBhv0GRIkVCzn6SbWUm2pBsnZmeBEggewjQuGdPX+R8TYKqQvfUU0/p0gE6EI5/4G//xRdfjKs/7ZhRSS8ufIxEAiRgQ4DG3QYMbydOIKgqdFC9w9l8HBOEeA6c+cRr3O2YUUkv8X9/TEECJHCBAI37BRa8ckkgHhU6GCurCh2c3UCFDjvijQodnNZg1IuNdAjwM29U6OC3Hip0K1as0Gfwpjd69OgwFboJEybos1h/oEI3ZsyY71ToCgVrUIYxxPCnP3z4cClWrJiWG68KnakvyoVoDzz7wbUuHPHYhXiY2aWNbMOyZcvClPSsbcARQ4jz/P3vf7fLjvdJgAR8SIDG3Yed6nWT4lGhgwgMVN8iVei+/PJLmTt3bkiFrm/fvrJ161Zdu45UoevSpUvIuA8cOFBFZ2CoE1Ghw8sEHOHMnj1b64Oz82+//bZK4UKYBmf73ajQ3XTTTSqF+8Mf/lDgDCiWYUf/xMPMrh+jtQEbD6Gkl0wb7MrjfRIggdwjQOOee32WlTX2WoUOUrZuVOjg2x6e76BCB6MOXXujQgeFOvjSj1Sha9GihWBUj2D1rY/z90uWLNH7kMDFFHvRokUlmiCPRor4Ew+ziCQCH/vWNsCoGyW9P//5z/rM2ga472UgARIIHgEad5/3OQygVYUOv90EjJqTDdGM3vTp01WFDs5v3KjQYQRuVOiiuby11jlShQ6zBkhbtWpViaVCV7NmTTXc1rxwbXX2k5+fr4979Ogh+GzatEkOHTqk91L5J7INViU9zBogGCW9ffv2pbJo5kUCJJBDBGjcc6iz3FQVI81UyMPGUzbKSlSFDiPRZFTovv/97+vafc+ePS/yZ+9Ghe6qq65SPXqrCt2zzz4r+MQTNmzYoMa9ZcuW8vTTT2sSLCFUr15d1q9fr0sO1nycmCXSBsgJIxglvXr16lmL4jUJkECACFA4JkCdne6mJqNCV6FChYRU6Dp37qwqdBgdQ542URU6lIeNZwhWFTqsWSeiQoeXAfi7h649RtXYLY9gRs+4bt26tbrPhQvdyODELJaSnmkDXgDQhsOHD+t+gkGDBiXUhsg68TcJkEDuE6Bxz/0+zJoWuFWhg0FctGhRQip0HTt21PVuLDm4UaFDeTfccEPSKnTY9Idp+MWLF8vvf/97XWLACB369pEBRjgyODGLpaQXrQ24h9kMKulFkuZvEggWAarC5bB71nj+qeaC+9myZcvqRrTPP/88niaF4mDkCuOK3emJBjiJiaVel6gKnVkLd9oln2g9Y8V3agNeevr166cvH7Hy4TMSIAH/EeCau//6NOdahE1hbgKOrSUqS2vKiWbYk1Gh89Kox9sG+A+INoNg0vObBEjAvwRo3P3bt2xZggT8oEL3wgsvSPv27XUmBFPzVNJL8B8Bo5OATwg4Gvdo64Q+abs2g+3zU28m1xY/qNDh7D4+DCRAAsEm4Gjc3Z6LzhWsbF+u9FT89cwmRTU4v8H5fXNMLf5WMCYJkAAJuCfgaNzdZ82UQSNgp3DmNYdsUlTD+Xs46KFx9/pfAcsjgWAToHEPdv+ntPV2CmcpLSSOzKioFgckRiEBEvA1ARp3X3evN42LR+EMPtytqnBwPgNVOCiWGVW4M4WqcCsKVeGwKQzBqgqH31CFg2ocAkbnOB8Pz28I2BVuXMDqDZs/UFS7++67v1OFKxSQebSwXvAqh4Ap9GFDh0qx4sXVMU68qnBIO7QwHZzVQFEO0/D333+/RLp/hVrcuHHj1B0wXOXiJQQcrrzySpWLxfl4tJmBBEiABJIlQCc2yRJkelU4++9CudUPP/xQcFYd1/hApcyE0qVLS6dOndRozpgxQ3bv3q2PIL4yb948NbjvFRponMuuUqWKPjOqcHDkgvhWN7pQc4PSHFzXwqjv37/fFBXzGy8T2ET50EMPyaGPP5YBAwaob3kkgsjK5198oc/w0gCBFojJOIXevXur+My2bdu0Pq+++qpA2MYafvCDH8jEiRMFm/aMD3wwgZtbiM+89957Aq97DCRAAiSQCgIcuaeCIvNQf+w4rw75VaidRQsHDhyQyZMn6yO4S0WYNWuWwBkNRs1wn4qAkexnn32m11u2bJGNGzcKDCe8rzVs2FBfEC677DJXqnAw1sgHqnBWRTXMKuBl4Xe/+91FqnBakRh/cPQM59zx0oIQOWKHxzi8gPz1r38NxTHZYWc79OTxMd72XnrpJfOY3yRAAiTgigCNuytsuZMIG7myWRVu2rRp6rIVzmjcqMLh5cCowq1duzZmxxgvchglI1gV1WKpwsXMtPAhXgrwEmIXMIo/e/asLiVExrG+CGAWA8puNO6RlPibBEggUQI07okSy7H4cGTiVcB0d6KqcBilJ6MKV6tWLRWA6dWrl0Qad9QHU+smHD16VC9RprnGGjmWEjCKRzCKalZVOH1Q+AdT+EbdDTMJJpwpXLuPFt88x5LBggULBPK2t99+u84cmGe1a9c2l/qS8MEHH4R+84IESIAE3BLgmrtbckx3EQEnhbOLEvzrRsWKFQUfGL54A9bvMTVfUFDgShUO5Q0bNkyLs6rCYd3dThUOGwebNm2qH2s9MTtSt25d6dChg97GLACWD0z4unCjIAw8NgT+/Oc/F2zqM6FFixYCA4/9BHgxwno9AwmQAAkkS4DGPVmCTB8i4KRwdv78+VBcXEDwBRvlRo4cKY888khCqnB5eXmqxPbMM8+4UoVDeW3btlVjavYILFy4UGrUqOGoqBbp1RAjcviqx8geSyCYicBmwMiwbNkyXZvHpj4TkBeWFn7961+rq1gzo2Ce85sESIAE3BCgKpzPVeHc/KPwOk25cuXUF3qiIjAYfcOIRhOBcWoDRtrY3W8XElWFM/nUq1dPsHEwngDFvrlz58q7776rR+ESVcWLpwzGIQESCCYBrrkHs9+zqtUnT550VR94fsPHTYhm2JNRhTN1iNewm/j4dtsGax68JgESIAErARp3Kw1eB5qA16pwOI4X7/n8QHcMG08CJJAwARr3hJExgV8JeK0KN3v2bL+iZLtIgAQyTIAb6jLcASyeBEiABEiABFJNgCP3VBO1yQ9eygYNGqTHoHB8684777SJydskQAIkQAIkkBwBGvfk+MWdGp7YcN4ZnyJFisSdjhFJgARIgARIIFECnJZPlJjL+BMKhVT69u0r//jHP1zmwGQkQAIkQAIkEB8BGvf4OCUdyzhKSTojZkACJEACJEACDgRo3B0A8TEJkAAJkAAJ5BqBwK+5X3LJJVmjmpZr/3hYXxIgARIggewkEHjjDt/eEO1gIAESIAESIAG/EAi8cfeqI6FgVqFCBZUghfoXfJDD7eiJEye8qgLLIQESIAESCAgBGnePOrpfv37SqlUrwTIAApTENm3aJDNnzvSoBiyGBEiABEggKARo3D3q6RkzZgg+DCRAAiRAAiSQbgLcLZ9uwsyfBEiABEiABDwmQOPuMXAWRwIkQAIkQALpJuBo3LGb3M/B6/atWrXKzzjZNhIgARIggSwg4GjczQawLKhrWqrgdfu8Li8t0JgpCZAACZBAVhNwNO5ZXXtWLi0Ebr31VhkyZEjCebtNl3BBTEACJEACJBCTAHfLx8QTzIdXX321VKpUKeHGu02XcEFMQAIkQAIkEJMAjXtMPP58WKdOHRk1apRUr15dG7hz507Jz8+XNm3ayOA77pDil16q95984gn9vvM3v5FPP/1U7rnnHrn22mulaNGicqZQunZF4fMXXnjBMR207MePHy+VK1eWc+fOyfr16+XRRx/1J1y2igRIgASygACNexZ0gtdV6N+/v5QqVUrGjh0rlxYa8mbNmmkV3njjDTly5IgMGjRIypcvL1OnTtX7MOwIX331lcybN08OHz4st9xyi8Axz7Zt28Qp3eTJk+Xbb7+VWbNmSaNGjaRz586yceNGLUsz5h8SIAESIIGUEuCae0px5kZmcIWLjX1nzpwRjNqXL18eqjikaU+dOiVfF47McW2VqoVx3rVrl2D6HQYe4corr9Rvu3RNmzaV0qVLy549ewQjeOQNQ9+9e3dNxz8kQAIkQAKpJ8CRe+qZxswRRtV6HM7t7vkuXbrELCfWwwULFsjIkSN1JA1Du3LlSlm7dm2sJPps2rRp6hP/+PHjcvr0ab2HkX+sULduXX1co0YNwQcBLwYw8gwkQAIkQALpIUDjnh6utrlmgwodRut9+vSRWrVqyfDhw6VXr15hxh11hLiNNdSuXVtH6ZjK37t3rzRu3FgeeOCBsHjR0pkp/YULF+qo35onr0mABEiABNJDIPz/4Okpg7lmGYFOnToJpuYLCgrUUGOTmzVg6h275bHxLjJUrFhR8Ln99tsjH6nxjky3ZcsWOXv2rGCd34zc27VrJ9dcc81F6XmDBEiABEggNQQ4ck8Nx5zKJS8vT3r37i0YaZ8/f17WrFkTVv+XX35ZbrjhBhW6wbLBsGHD5KOPPpLdu3frdD4imzV3pDchWrpPPvlEFfCwO3/u3LkaFeVi/Z6BBEiABEggPQQuqVq1akz/sqtXr5Zk1nfTU+3U5ep1+7wuz44URt9lypSRgwcP2kWJer9cuXJ6FA7r7okGHL3DMTrMGDCQAAmQAAmkjwBH7uljm5GcMd2+ePFi27IhO7t582Y5duyYfmwj2jw4efKkzRPn22a07xyTMUiABEiABJIhQOOeDL0sTPvFF1/I0KFDbWtGA2uLhg9IgARIwDcEaNx905UXGmI14NmyDHChdrwiARIgARJINwEa93QTZv5ZSQBH+eBcBx720hl+8pOfyBVXXKFF5LJXPuy1KF68uBw9ejSduJg3CZBAigjQuKcIJLNxTwBqctjgN3/+fPeZRKR0yrNbt25SrVq1tBt3HCds0KCBut3FyQG4982lADfE6Be4K0b48ssv1aMhTkYkG5z6KNn8mZ4EgkyAxj3IvZ8lbU+HmpxTnvCRj5FouoNx7Wv1SpjuMlOZf5EiRdR/wROFIkHwKggBIPg4SIVxd+qjVLaDeZFA0AjQuAetx9PYXhiyV155Rdq2bStly5bVI28jRoxQn/JQlLOqwi1btiwuNblo6dAEqMrBXz181+Ms/nPPPScrVqxwzBPT8TBQCPCHDzU8EyBqM2bMGK37N998o2W8+OKL+tiuPJPWzTd87du179577w0p8MHPP4zrunXrtBh4Cxw9enSYqt+ECRP0WWSeUO0zCnyx0tnVH0ceIfxjwtNPP61lYzZi37595nbUb7vynNQHo2bGmyRAAgkRoHFPCBcjxyKAqdubb75Ztm/fLq+99poaJ8SfMmWKwFjOnDlTp6fhIW/Dhg2OanJ26TC1jTP6ULPDsb/rr79efTHAuDsp1MERD4wV3O9WqVIlrDkwqBDTmT17trYDXvXefvttlbu1Ky8sgwR/xGofpr/h9AebI6HA17dvX9m6dat89tlnMnDgQClZsqS+iFhV/VB8tDzNWn+sdPFWvXXr1ur4yMmwIz+78pz6KN66MB4JkIA9ARp3ezZ84oLAgQMHQiM9nKfHyBpG/913371IFW7OnDk6esZ0L4yUVYHOKR2qBte2MFzYFLdo0SJp2LChutM1CnWReZrmwLf+iRMn1ECae/Xr15cSJUoIfOC//vrratQfe+wxgavcJ598UqNFKw8zFK1atdLn8LxnAuRxlyxZYn5e9O3UPnjwq1ChguZtTj9AgQ/GHevgCHhhQlvRHoRoecL1LxT4wNouXYsWLeJqA/JHWx9//HEtz+kPysOsCl6YrPVEOqc+csqbz0mABGIToHGPzSfnn+J/rtb1Xvx2E+L1UvjWW2+FZV/XpSpcPOkwCkcw3vIuv/zysLIT+YHNdQjvvfeefmPkDMW8Qg+O+ht/opWH51g7jgxOzn6c2jd9+nRV4IOzoUgFvmiqfnAh7JSnXbqaNWs6tgEbA7GEsGPHDsHxyniCKQ8zIUZ9MNLVcTz5MA4JkEDiBGjcE2eWUykwmuzatatndcaI2BriUYVDHSNV6OJNZy3Leh0tT+vzyGtzxAujY3NdrFgx+fzzz0NRrSNzc/PZZ58VfJwC0mJmwIRY7cNaNWYS7BT4jKof1texp6Fnz56qD4A8UY6dAp9dOqc24CQDljKgL3DfffeZJoS+Mf0O18Lr16/XpQPzwK488zzRPjLp+E0CJOBMgKpwzowYIwkC0VTh2rdvH6YKF02FLp50saoVLc9Y8SFjCxEcTGFjOhxSuAhYWkhFwD6BG2+8UY/8Ib942gejirpEKvB17txZVf0OHToUpuqHPKHw169fv5ACn5W1XTqn9mHkDUP8yCOP6EsHXjysAevwTZo00Y/1vlN5ifaRNW9ekwAJxCbAkXtsPnyaIAGrSpxJiilmqMLh+BkC4lhV4ZzU5OzSRZZl/W2XJ9aeMQ1tliewZIFpb2jaP/zwwzJo0CBdv0c9X3311bB9ANb8TTvwHU9YunSpugWGgcSLxLhx40JqeZHtg9HDEgCYIeB8PIIpv2PHjiFVPxhz61R3JGs8h3FGiJVOI0T5A2leOPtBmDRpUigGNvuBjzXgBcAanMqz6yNrHrwmARJwR4CqcB6r3nntDtbr8mL9M8S6NlThMOJMJLhNl0gZ1rhYX05ULc+aPtFru/Zhsx54WZcGTN4Y0eO5XT3t8nRKZ/JP1TfKw0kDTOkzkAAJeEeAI3fvWAe+JLfe2dymcwvczmC6zc8pnV37cIrALmATodlIGC2OXZ5O6aLllcw9r8tLpq5MSwJ+IsA1dz/1JttCAiRAAiRAAoUEHI175Dqa36h53T6/l+e3fx9sDwmQAAnkIgFH4242HuVi4+Kps9ft83t58TDPhjjJnInPhvqzDiRAAiQQi4CjcY+VmM9IIF4CUAAbMmRIvNFD8dymC2UQcQGf6E8W+mmHR7tnnnlGOnToEBHD3c9U19NdLZiKBEiABL4jQOPOfwmeEIAXNwizJBrcprMrB0fQTpw8KQMGDFD5VfiPT0VIdT1TUSfmQQIkEFwC3C0f3L5PactxfAznsuGpDAHeyaC45qQABpem1157rR75OlOofraicFQNJTOndPDOBnU3q9KcUT+zaxhcxZYrV05w5hxuXTE1j2WSvLy8kOKaXVq37bPLj/dJgARIIJ0EaNzTSTdAeWMEDIEYuEy1KpU5KYBBYAVOXIz6GbyrQQjGKR3cocJfOZzhYEYA3tCM+pkddrwQIMCJzODBg1XQBC5m4dTGKbhtn1O+fE4CJEAC6SBA454OqgHM87LLLnOlABZL/cxOOQzqZPCaBnerMNg4Dw5DD9excBdrp9Jmzq/DsQrcskK7feLEiTqad+oyt+1zypfPSYAESCAdBGjc00E1i/KEipcXqnBGAQzG2iiArV271pHEtGnTVP0Mzk4i1c/sEsdSP4ulcPbOO+9oljDq0EbHywM8wDkpuCGR2/bZtYH3SYAESCCdBGjc00k3C/KOpuKVjmoZBbBatWqp6Ap8tVuNO873Ryq/Qf0MKmx26meoZ7R0sRTVkMZOpc3It2LZYOrUqeq+Fcb9448/RjIN2GhnFM6wPGCCm/aZtPwmARIgAa8JcLe818R9Wl6nTp1UqaygoCBMqcw0N5YCGNTP8IlUP0PaaOmiKaq1a9cuTGnOlGv9xksBRunGrSukSvHysG7dulA0bOTDtD8+1pBM+6z58JoESIAEvCDAkbsXlANQBnac9+7dW40l1MusSmVofjQFMIiJQP1s5MiRSgib6hCM+hmuo6WDSppRP4M6GQKMtFVpTm9G+YNlAOzix1IFdsrb7bBHftbgpn1Gzc2aD69JgARIwAsCVIXzuSqcF/+ITBkYfUMBzGxcM/edvnE8DdPjsYRQ7PLAFDrSYsYgkYAlgUSVyty2L5F6MS4JkAAJpIIAR+6poMg8lADOjuOTaIhnQ5tdnma0b/fc7n6ihh35uG2fXR14nwRIgATSRYBr7ukiy3xJgARIgARIIEMEaNwzBJ7FkgAJkAAJkEC6CNC4p4tsluTbuHFj+dGPfuS6Nj169IjLyYvrApiQBEiABEgg5QRo3FOONLsy7Natm/Tp08d1pWDcjdtW15kwIQmQAAmQgKcEuKHOU9zeFwa/7cWLF/e+YJZIAiRAAiSQMQI07hlDn96CMR0P1TQEuFnF2W4TcLZ7z5496qgFZ72fe+45WbFihT6GX/ahQ4eq+MsHH3xgkug3RvBQcbMqsS1btkyuuuoq9dGOs+d/+9vfBL7bH3roIT3rvrrwqCEDCZAACZCAtwQ4Le8tb89Kg3MYKKcdOXJEqlSpElYuzqI3a9ZMpU/hAa5Lly6h50OGDJEvvvhCjbNx12oeTpkyRWcBZs6cKS+99JLAa1u1atX05QHuWeGzHeGBBx6Qb775RmjYDTl+kwAJkIC3BGjcveXtaWkwuCdOnIhaJly4QiIV0/YYvTds2FAqVaokJUuWVMP++uuvh0bzyADuWCHpihF/pBIbnk+aNEm+LtRjf6JQjx0vE2bWAM8YSIAESIAEvCXAaXlveash9UKlzalZGNkjGK9wl19+uaqz4R70zhHef/99/cafunXr6nWNGjUEHwQ4kDF+2vEbhh3+2iG4ghkDBhIgARIggcwQoHH3mDt8lnft2tXjUi8uLtJ3OmJgih7BuGY1Bh33nJTYEAe+5eFtrkWLFqr2FrlmjzgMJEACJEAC6SfAafn0M86ZEuCSFVrsODqHTXE4RmdCNCW29u3bh5TYsJkOLwy33XabHDhwQDfYmbT8JgESIAES8JYAjbu3vD0rbc6cOap8dt111+mmNywFLF++PFS+VXkNN81vbILD+vqiRYtUwjWUoPACBhxCLVinR7w77rhD4+AloH79+qEd+b/97W9VzAUb6xhIgARIgAS8J0BVOKrCRf1Xh3V1O8lS7JCHEtuhQ4eipuVNEiABEiCBzBLgmntm+Wdt6XaGHRXmZrms7TZWjARIgASUAKfl+Q+BBEiABEiABHxGwNG4R9tV7ScGXrfP6/Ksx+781G9sCwmQAAmQgD0BR+MOByd+Dl63z+/lxfq3grP06QgtW7aU7t2768bBdOTPPEmABEgg1whwzT3XeiwH69ugQQOZmJ8vxS+9VI/LYSf+hg0bUtKSpUuXqh98OOOB8x3uB0gJVmZCAiSQ4wQcR+453j5WPwsIjBs3Tk4UOrcZMGCAGt/+/funpFbYtV++fHm5++67VezmnXfeSUm+zIQESIAEcp0AR+653oNZXn+Iz5QrV05Fao4dOyaYmsfSRF5enqxbt86x9lCoa926tRQrVkxOnz4t999/v+zbt0+gRgc/+AhTp04VLB7Nmz9fNm3apL7v4dveql4HJTwGEiABEggKARr3oPR0htoJkRkETJkPHjxYzpw5o4a6Zs2ajjWCO9t27dqpwX7++eelTZs2OlJHQhj5Ro0aSd++fdW4w/BD2hYBanjwtDdr1iyN07lzZxXJ4ZS94uEfEiCBABDgtHwAOjmTTbzsssu0eLizhbtaGN6zZ8/qaN6pXogPgzxjxgwdrS9evFhFaZBu//796uYW15iON4Yd3vVKly5tq16H+AwkQAIk4HcCHLn7vIcxBW49Dud2t75V8z0RZNCGR4DW+9atW9UIw7sdBGacAiRm4dM+kWDEbmKp1yWSH+OSAAmQQC4SoHHPxV5LoM44V59JFTrjovbSwp3yWBsvW7asuq79+OOPQ63ARjv4rF+/fn1oZI6HmMKHz/pEQjzqdYnkx7gkQAIkkIsEOC2fi72WQ3WGscUo3ei+Q+8dLxzWzXRYS8d0Oj7WsGPHDsFIvEOHDnq7efPm0rBhQ2uUi66jqddh3f6aa665KC5vkAAJkIBfCdC4+7Vns6hd06ZN0zV2LA+0atVKHnvssai1i/TeBxW6gwcP6hE6pB07dqyUKVMmalrrTaNeN3fuXF2SwEY+s/ZvjcdrEiABEvArAU7L+7Vns6hdu3fvVg9ytWvXFmjGR4ZevXpF3gr9vuuuu/S6Xr16oQ105iHyjbYXYNu2bdKjRw+d6sf6fkFBgUnCbxIgARIIBAEa90B0c/oaiRExdrHbBex037x5sz6OZtjt0kXeP3DgQOQtx9+HDx92jMMIJEACJOBHAjTufuxVD9uE3fBwNGMXaGDtyPA+CZAACaSPAI17+tgGJmca8MB0NRtKAiSQIwS4oS5HOsoP1UyXKhw26WGNHb7mGUiABEiABEQ4cue/grQTuOqqq9RdbPHixUOqcC+++GJKyoWP+RIlSsjRo0fVKx1dzKYEKzMhARLIcQIcued4B+ZC9SHigrX522+/XTCFj+9UBIzUIUozatQoqsKlAijzIAES8A0Bjtx905XZ2RCrKhw0140q3M033ywQg3EKw4YNC1OFmzhxorqwhcqbUYV78MEHNZt58+bJm2++KThyN3r0aD0Khwc7d+6UCRMmOBXF5yRAAiTgGwI07r7pyuxsiFUVbsiQISFVOPh+dwq33XabtG3bNkwVzjijue+++0KqcBCjsarCwQseDD/82cPtbbNmzZyK4nMSIAES8BUBGndfdWf2NcYYY6jCwQ0sDC5G35hOdwqIb1ThEBc67iZAFQ6GGwGqcNZQvnx51YyHb3qoxWHkzkACJEACQSJA4+7z3oYK3OrVq5NuZTRPcPFkalTh4DrWC1U41GnBggUycuRImT17tuq6r1y5UtasWRNPdRmHBEiABHxBgMbdF91o3wj4a3drmO1zjf+JUYXDTnk7VThMoxtVOLwAmOBGFQ5pMVLv06ePYElgxIgR0rNnTxp3A5XfJEACgSDA3fKB6ObMNTIeVbjWrVtLkyZN9GOtqVGFu+mmm/R2ixYtHFXhELFz584qFIMXi71798q5c+es2fKaBEiABHxPgCN333dx5hsIVbj8/PzQ8gB2ukcL0VThZs6cKf3799cPnk+aNCla0rB7HTt2lN69e+uZehh2TsmH4eEPEiCBABCgcQ9AJ2e6iV6rwg0YMECwgQ/ysMmI1WSaG8snARIgAbcEaNzdkmM6JYDd8EuWLLGlAVW4TZs26fNkDG2iqnA4U48PAwmQAAkEkQCNexB7PYVtxm74wYMH2+ZId7C2aPiABEiABNJGgMY9bWiDkzENeHD6mi0lARLIDQLcLZ8b/eSLWqZDFa5x48aCXfQMJEACJEACFwhw5H6BBa/SRKBBgwYyMT9fihd6lMOO90WLFsmGDRtSUlq3bt1U6nX79u0pyY+ZkAAJkIAfCHDk7odezPI2jBs3Tk6cPCnYxY4pfBxtS1WAWAz8zDOQAAmQAAlcIMCR+wUWvEoDAasq3LFjx0KqcHl5ebJu3bqYJdapU0flXOG9DgGe53BeHgHT8XhpQID/ePirZyABEiABEviOAI07/yWklYBVFQ676uFStlixYlKzZk3HcjHCL1WqlMAvfaS6G87OT5kyRd3M4gWCgQRIgARI4AIBTstfYMGrNBCwqsK1b99eIM969uzZuFThkBbCN3ghwKh9+fLlYTXEvRMnToTd4w8SIAESIAERjtx9/q8gW1ThIPWaqCqcUXebNWtWSN1t7dq1Pu8xNo8ESIAEkidA4548w6zOIVtU4TCtnqgqnFF3q1WrlgwfPlx69eolNO5Z/c+NlSMBEsgSApyWz5KO8Gs1klGF69Spk6q7FRQUUN3Nr/9A2C4SIIG0EODIPS1YmamVgFGFW7Vqla6hx6sKhx31Rt3t/PnzYepuc+bM0U15WHZAQN6nT5/W0b21bF6TAAmQQBAJ0LgHsdc9brNbVTici69YsaKqux08eDCs1pimZyABEiABEohOgMY9OhfejZMAdrQvXrzYNjZU4TZv3qzP3ajC4Ww8PgwkQAIkQALxE6Bxj58VY0YhAFW4oUOHRnny3a3Dhw/bPuMDEiABEiCB9BCgcU8P10DlSgMeqO5mY0mABHKAAHfL50AnsYqxCbRq1Up69OihAjKxY/IpCZAACQSDAEfuwejnjLYSLmgHDRokjRo1Ehxru/POO1NWn2XLlkmJEiXk6NGjsmfPHhWmSVnmzIgESIAEcpQAjXuOdlwuVfvBBx/UY2pff/21FClSJGVVr1atmrqxxc75Q4cOpSxfZkQCJEACuU6Axj3XezAH6n/vvfeqctvs2bMTNu7YrNe6dWsVm8E59vvvv1/27dsnOCtfsmRJbT1eHhAg//rmm28KZgrGjx8vlStXlnPnzsn69es1vkbiHxIgARIIAAEa9wB0cqabCElWNwEObNq1ayebNm2S559/Xtq0aSPly5fXrKDhjmn+vn37qhgNDL8pB+I03377rcAnPeJ07txZNm7cyCl7N53ANCRAAjlJgMY9J7stGJWGityRI0cEZ+URMGI3Yf/+/SoDi9/vvPOOuS1NmzaV0qVLy5YtW3QEf+rUKTX03bt3F3i1YyABEiCBIBCgcfd5L2daFS4ZvNByh5FOJNStW1ej16hRQ/BBwFE9GHkGEiABEggKARp3n/d0plXh4sE7cOBAqV69uq6NQxbWBOi4169f3/yM6xtCNQgLFy6UXbt2xZWGkUiABEjAbwR4zt1vPZqF7YGL2nr16umRNUi/4tqsnaO62DDXpEkT/Virv2PHDsFIvEOHDnq7efPm0rBhQ2uUi64x0j979qz0798/NHLHuv0111xzUVzeIAESIAG/EqBx92vPZlG7+vXrJ9OnT5cqVapIpUqV9Br3IgNmGawBaSAYAwEZqL6NHTtWRWSscaJdIx1mAubOnavpBg8erNKx0eLyHgmQAAn4kcAlVatWDf8/akQrV69eLV26dIm465+fXrfP7+Wl618GRvsHDhxIKHsY+KJFi6rjnIQSMjIJkAAJ5DgBrrnneAdmuvqJqMIlU9dEDTvKos/7ZIgzLQmQQC4ToHHP5d7LgrpTFS4LOoFVIAESIIEIAo7GPXIdNCJ9zv/0un1+LI8j5Jz/z4ANIAES8BkBxw11OCft5+B1+/xeXib+rbRs2VLgpAa+5hlIgARIgAREHEfuhEQCyRJIpyrc0qVL1VPd8ePHZe/evXQxm2xnMT0JkIAvCNC4+6Ibs7sR06ZNEyjCpUMVDuflR4wYwR3x2f1PgLUjARLwmACNu8fAg1jchAkTUq4KBx13owo3depUweLRvPnzVWSmTp06MmrUKD3rDt47d+6U/Px8XDKQAAmQQCAI0LgHopsz20ij1pZoLWKpwkH61ajCwbhbVeHgnQ5+6eH0Bh7xmjVrlmjRjE8CJEACOU2Axj2nu8/flXejCgciOHuPjYvwTY8XC4zcGUiABEggSARo3H3e2zBycN2abOjatWuyWSSc3o0qHApZsGCBjBw5UvXcoeu+cuVKWbt2bcLlMwEJkAAJ5CoBGvdc7bk4641z9ZkwzHFWT6PBd7xRhdu2bVsoqRtVOCTGSL1Pnz5Sq1YtGT58uPTq1YvGPUSVFyRAAkEg4HjOPQgQ2Mb0EnBShWvTpo00bdpUP9aauFGFQ/pOnTrp1HxBQYEejzt37pw1W16TAAmQgO8JcOTu+y7OfAOhANeqVStdB0dtoNq2adMmmTlzZljlIr33IR7iYGSPTXJ4Pnny5LA00X7k5eUJNuMh/vnz52XNmjXRovEeCZAACfiWAI27b7s2exo2Y8YMwccuYNrcLtx11136KJoq3O7du6MqFuJloGLFiioPC8lYBhIgARIIGgEa96D1eIrbm62qcMeOHRN8GEiABEggiARo3IPY6ylsM1XhUgiTWZEACZBAigg4GvfIddAUlZs12XjdPj+WR1W4rPnnzIqQAAmQgBJw3C3vtYqZ1/3idfv8Xp7X/de4cWNp0aKF18WyPBIgARLIagKOI/esrj0rlxME0qkK161bN5V63b59e06wYCVJgARIwAsCNO5eUA54GelShQPWefPmSfHixQNOmM0nARIggXACNO7hPPgrDQTcqsLFUnfDdPy4ceO0tvAfP3HixDTUnFmSAAmQQG4SoHHPzX7LqVq7VYWLpe6GM+5TpkxRN7NVq1bNKR6sLAmQAAmkmwCNe7oJM3/XBJzU3eBD/sSJEyFdd9cFMSEJkAAJ+IwAjbvPOjSyOdidv3r16sjbCf/u0qVLwmmSTUB1t2QJMj0JkEBQCdC4+7znca4+E4Y5Eax2qnBUd0uEIuOSAAmQwAUCjufcL0TlFQm4I+BWFY7qbu54MxUJkAAJcOTOfwNpJ+BWFS6WutucOXOkZs2aIaW5VatWyenTp1W7Pe0NYgEkQAIkkOUEaNyzvIP8UD23qnCx1N2GDx/uBzRsAwmQAAmkhQCNe1qwBifTdKvCUd0tOP+W2FISIIHUEaBxTx3LQOZEVbhAdjsbTQIkkOUEaNyzvINyoXpUhcuFXmIdSYAEgkSAu+WD1NsZbGu5cuWkUqVKaalBq1atpEePHiogk5YCmCkJkAAJ5BgBjtxzrMNyrbrly5eX+fPnS6lSpbTqX375pSxfvlxefvnllDRl2bJlUqJECTl69Kjs2bNHjhw5kpJ8mQkJkAAJ5DIBGvdc7r0cqHuRIkVk165d8sQTT8ipU6dk/Pjxcvvtt6fEuFerVk0wI4Cd84cOHcoBGqwiCZAACXhDgMbdG86BLeX48eMyefLk/9/emUBJVZ15/DPQ7IvsArIIsjUKsqgjgodFMxAIPYMILjCABEGBJhFCYMCwGRFZhTaDIDsoxrAEsRUNI6OAHJogCjZLAGWJggGRxVaW5kz/P/PK19X1Xi1dy6v3/vec6nr17v67dfqre9+939/X/zfeeENGjx4tDRs2lEOHDvnuW10MGzZM2rZtKykpKXqOfcqUKZpv2bJlPp/yM2bM0OyQf926datAPx4/IqpUqSK5ubmSmZkpSM9AAiRAAl4hQOPulZF2SD9hqK9fvx6SYe/Xr5907NhRtm3bJm+++aa0a9dOsMyPMHnyZGnSpIk8/vjj+uMBDmwM9Tn8mLh69arMnj1b06SlpcmmTZu4ZO+Q7wCbQQIkEHsCNO6xZ8wa/kWgefPmgs1vK1euDIlJp06d1CDDCQ6CeaZ/5MgRKV68uN7/5JNP9B1/UEfp0qVlx44dOoPHowAY+l69egm82jGQAAmQgBcI0Li7fJSdogpXp04dGT9+vOzZsydklTpswoORDifUrVtXk9eoUUPwQsBRPRh5BhIgARLwCgEad5ePtBNU4SpVqqRL58ePH9fldH/kgwcPlurVq+uz8Z07d/qiL1++LPXr1/d9DuXi9OnTmmzhwoW6kS+UPExDAiRAAm4jwHPubhtRB/Znzpw5gh8ZCxYsUGPtb7DxHL5Zs2b6Mjcfs3zMxDt37qy3W7VqJY0aNTInKXCNmf61a9dk0KBBvpk7nts3bdq0QFreIAESIAG3EuDM3a0j65B+wajiGTjCc88952vVvHnzZMuWLb7PuMAPAHOYPn26zJo1SyAgA2ONePPOe3Na8zXyjRo1SlAHAvJhcx0DCZAACXiFAI27V0Y6Qf3EGfcePXrY1t63b1/L+Kefflrj6tWrJ0ePHs2XLjs7O2DZWVlZ6rEOS/1FixaVEydO5MvHDyRAAiTgdgI07m4f4Rj3L9aqcEbz/Q27cd/unT7v7egwjgRIwM0EaNzdPLpx6BtV4eIAmVWQAAmQQJgEaNzDBMbkBQlwhlyQCe+QAAmQQCIJcLd8Iul7qG6qwnlosNlVEiCBhBPgzD3hQ+DuBlAVzt3jy96RAAk4kwCNuzPHxTWtoiqca4aSHSEBEkgiAjTuSTRYydjURKjCwdUtzrnjKBzCvn37ZOLEiXrNPyRAAiTgBQI07l4YZQf1MR6qcHB4A7/0Y8eOVXGZFi1aOIgAm0ICJEACsSdA4x57xqzhXwTioQqHqnD2HoI58E0PGVjM3BlIgARIwEsEaNxdPtpOUYWrXbu2PPPMMzFXhcNwzp8/X0aOHKkuZyH3unr1alm/fr3LR5rdIwESIIGfCNC4/8TClVfwqx7M/WusO16xYkV54YUX5NixYzFXhUNfMFMfMGCA1KpVS9LT0wXubWncYz3KLJ8ESMBJBHjO3Umj4dK2zJ07V3Jzc+OiCgeE3bt316V5+JQ/ePCg1u1StOwWCZAACQQkwJl7QCy8GS0CUIXD5jYEs6IbFNvef//9fNVESxWuW7du0q9fP1WDu379uqxbty5fPfxAAiRAAm4nQOPu9hFOcP8SoQoHidhKlSpJmTJl9FFAghGwehIgARKIOwEa97gjd1eFTlWFO3v2rODFQAIkQAJeJEDj7sVRj2KfqQoXRZgsigRIgASiRCCocfd/Dhqleh1TTLz758b6qArnmK8zG0ICJEACSiDobnmck3ZziHf/3F6f1XclVqpwqamp0rp1a6tqeZ8ESIAEPEkg6Mzdk1TY6agRgCpcRkaGb8f8pUuXZMWKFfLXv/41KnX07NlTbrrpJtm1a1dUymMhJEACJOAGAjTubhhFB/cBqnDZ2dny2muvycWLF+W///u/Bb7fo2Xc8cOhWLFiDibAppEACZBA/AnQuMefuadqLIwqnJ26G5bj8UMBAf7jJ02a5Cmu7CwJkAAJ2BGgcbejw7ioEwhHFc5O3Q2rAc8//7y6ma1WrVrU28kCSYAESCCZCdC4J/PoJVnbw1WFC6buBh/y58+fl5IlSyYZCTaXBEiABGJLgMY9tnwTXrq/KlykR/EefPDBQvUFS+zjx48PSxWO6m6FQs7MJEACHiZA4+7ywYcxT7QqHFzBwq/88ePHA6rCwV1s9erVJTMzU7KysnwjQnU3HwpekAAJkEBYBIKecw+rNCYmgQAE5syZoyIuCxYskPr16+vLnKxdu3aCJXu8zIHqbmYavCYBEiCB0Alw5h46K6aMgABU4UqXLq05n3vuOV8JUIXbsmWL7zMu/B8Z2Km7QUa2Zs2aYjgFWrNmjeTk5Kh2e75C+YEESIAEPEiAxt2Dgx7PLhdGFc5O3S09PT2e3WBdJEACJJBUBGjck2q4nNfYWKvCUd3NeWPOFpEACTifAI2788fI0S2kKpyjh4eNIwES8CgBGnePDnw0u01VuGjSZFkkQAIkUHgC3C1feIYsIQQCOA5XtWrVEFKGn+See+6RXr16qYBM+LmZgwRIgATcR4Azd/eNqeN69Prrr0vRoj9+1bCj/dVXX5W33347Ku1csmSJFC9eXODD/uDBg3Lq1KmolMtCSIAESCCZCdC4J/PoJUnbIfG6fft2uX79uowaNUr9wUfDuEPqFZKyI0aMkBMnTiQJDTaTBEiABGJPgMY99ow9X8PGjRt9DD788EOBohsMcyiz7GHDhgnEZlJSUvQc+5QpU+TQoUOydOlSn0/5adOmyQ15NWS89JJs27ZNbr75Zhk3bpxUqVJFcnNz1fPdsmXLfG3gBQmQAAm4nQCNu9tH2CH969Kli3qga9mypbqhDcWw9+vXTzp27KgG+8033xR4ssNMHQFGvkmTJvL4448LjDuW+yH9igBXt1evXpXZs2drmrS0NNm0aVNIPya0AP4hARIggSQnQOOe5AOYLM2/++67pXHjxvrs/aOPPgqp2Z06dVKDPHPmTE2PGbsRjhw5os/a8fmTTz4xbusPCHjE27Fjh87gL168qIYeG+7g1Y6BBEiABLxAgMbd5aPsrwoXaXcLKz4zceJErbp3796CF5bPT548aducUqVKqZG2TeQXWbduXb1To0YNwQsBR/Vg5BlIgARIwCsEaNxdPtJOUIUzI37nnXfUuOP42htvvKFRgwcP9qnC7dy505f88uXLBURmfJEWF6dPn9aYhQsXClzfMpAACZCAFwnwnLsXRz2OfW7YsKE89NBDUqFCBd1EN3LkSK19//79vlZgw1yzZs305buZd7Fnzx7BTLxz5856u1WrVtKoUSNzkgLXWI6/du2aDBo0yDdzx3N7CNgwkAAJkIBXCHDm7pWRTlA/8fz74Ycf1hea8MMPP+judWi1+wd/Vbjp06fLrFmzBAIyMNaIx2a5YAH5cOQOynMIyIfNdQwkQAIk4BUCNO5eGekE9fPjjz+WBx98UJfd0YRArmr79u1r2bqnn35a4+rVqydHjx7Nly47O1sC7QXIysrSpf/q1avrBj6egc+HjR9IgAQ8QIDG3QODHMsuhqoKF8ioh9Muf8MeSt7C1hlKHUxDAiRAAk4kQOPuxFFJojZRFS6JBotNJQES8AwBGnfPDHXsOsoZcuzYsmQSIAESiIQAd8tHQo15wiZQsWLFmKnCtWnTRp+xw6UtAwmQAAmQgAhn7vwWxJzAn/70pwKqcJmZmVGpFz7mS5QoIWfOnJEDBw7QxWxUqLIQEiCBZCdA457sI5gE7V++fLl6pIMq3G9/+1vp37+/HocrbNMxUy9Xrpykp6cH9XZX2LqYnwRIgASSiQCNezKNVpK2NRaqcFB5K1mypBKZMWOGvmdkZMjWrVulTp06es4dR+EQcKbecH+rN/iHBEiABFxOgMbd5QPslO794he/UFGXFi1aREUVbvLkyT5VODi2MavCweEN/NKPHTtWxWVQJwMJkAAJeIkAjbuXRjuBfb3rrrviogqHLuLsPQRz4JseMrCBvOElEAWrJgESIIGYE6BxjznixFbgNVU40J4/f77Ahz1czkLXffXq1bJ+/frEDgRrJwESIIE4EqBxjyPsRFTlNVU4MMZMfcCAAVKrVi3dbAf3tjTuifj2sU4SIIFEEeA590SR90i98VaFA9bu3bvr0jx8yh88eFByc3M9QpvdJAESIIEfCXDmzm9CTAkkQhWuW7du0q9fP1WDw/G7devWxbSPLJwESIAEnEaAxt1pI+Ky9iRCFQ4SsZUqVZIyZcrIsWPHXEaU3SEBEiCB4ARo3IMzYgobAk5VhTt79qzgxUACJEACXiRA4+7FUY9in6kKF0WYLIoESIAEokSAxj1KIL1cDFXhvDz67DsJkIATCXC3vBNHxYVtipUqXGpqqtx5550uJMYukQAJkEDkBDhzj5wdc4ZIIJaqcD179hQIyGRlZYXYGiYjARIgAfcToHF3/xgnvIexUoVDxyAWU6xYsYT3kQ0gARIgAScRoHF30mi4tC2RqsLVrl1bRo8eLWZ1twkTJiglLMePGzdOr+E/nqpvLv3ysFskQAIREaBxjwgbM4VLIBJVuMGDB6us65gxYwqou2VnZwvU4OBmtmrVquE2h+lJgARIwNUEaNxdPbzO6VwkqnDly5e3VXeDD/nz58/7dN2d01u2hARIgAQSS4DGPbH8Y157MqvCGepuc+bM8am70ZVszL8yrIAESMAFBGjcXTCIdl1IZlU4Q93t5ptvlhEjRkifPn3oJ95usBlHAiRAAv8iwHPu/CrElECDBg2kV69eUqFCBT2yNmrUKK1v//79vnrbtm0rzZo105fvZt5FWlqaqrudPHmS6m5mMLwmARIggSAEOHMPAojRhSMA8ZbevXvLww8/rAV9//33kpmZqZrr/iVjlcEcunbt6lN3g2yreUl+3rx5UrNmTV/ytWvXSk5Ojs7ufTd5QQIkQAIeJUDj7tGBj1e3DVU4OJpBOHXqVIGq+/btW+AebkDdDZ7t8APh+PHj+dIMHz4832d+IAESIAES+IkAjftPLHgVAQGowi1evNgy58yZM2Xbtm0BjbplJlPEN998I3gxkAAJkAAJhE6Axj10VkwZgABU4YYOHRog5sdbFJWxRMMIEiABEogZgaDG3f85aMxakqCC490/N9ZHA56gLy+rJQESIAELAkF3y+OctJtDvPvn9voS8V255557dEe+8Vw/EW1gnSRAAiTgJAJBZ+5OaizbktwEOnToIMOGDZNPP/1UJk2aFJXOLFmyRF3T4rn8wYMHI362H5XGsBASIAEScAgBGneHDIQXmjFkyBDtZrRWLzBTh4taOLg5ceKEFxCyjyRAAiQQEgEa95AwMVFhCUDBDcfZqlSpElZRmOnDyU1KSoqeY58yZYocOnRIli5d6vMpP23aNMHDo4yXXtKd+fBoh/pQF87H41z9smXLwqqXiUmABEggmQkEfeaezJ1j251BoGnTptKiRQuBEQ4n9OvXTzp27ChZWVkyduxY2bJli87UUQaM/IoVK7Q4lPv7PClYHLlDgFpc8eLFZfbs2fLee++ppzs+j1c0/EMCJOARApy5e2SgE9nN3/72t7J582Y5c+ZMWM3o1KmTPkPHWXkEzNiNcOTIETXg+PzJJ58Yt6V58+ZSunRp2bFjh2AGf/HiRRWdgQvcuXPn+tLxggRIgATcTIDG3c2jm9c3PN+Ga9bChh49ekRUBIxq2bJlBb7k27RpI8WKFZPKlStLamqqQJPdLpQqVUqNtF0a/7i6devqrRo1agheCDiqByPPQAIkQAJeIUDj7vKRxrn6SA1zNNCUK1dOn3s/9dRTgrbg2Xn16tVl4MCBMnLkSK0CbmZxD8/GsQRvhMuXL0v9+vWNjyG9nz59WtMtXLh5BcL+AAA7RUlEQVRQPvvss5DyMBEJkAAJuI0An7m7bUQd1p9XXnlFz6BjBg8BmQsXLsjevXt9hh3NbdeunS6nY0ndHPbs2SOYiXfu3Flvt2rVSho1amROUuAay/HXrl2TQYMG+WbueG6P5/4MJEACJOAVAjTuXhlph/TTzkOff9z06dPl2LFjKiCzZs0a3VQHEZlgAfmwEgDlOOTDqgF84DOQAAmQgFcIcFneKyPtkH4OGDCgQEusVOGQ8Omnn9b09erVk6NHj+bLi2f2gR45YGkfqwQw8EWLFuUZ+HzU+IEESMALBGjcvTDKMewjZsSLFi2yrAE73bdv324ZH2qEv2EPJR993odCiWlIgATcSIDG3Y2jGsc+QRUOjmasAg2sFRneJwESIIHYEaBxjx1bz5RMA+6ZoWZHSYAEkoQAN9QlyUCxmdYEcH4ez9jphc6aEWNIgAS8RYAzd2+Nd0J7GwtVOPiYL1GihHq/O3DgAFXhEjrCrJwESMApBGjcnTISHmhHLFTh4CQnPT1dTp486QGC7CIJkAAJhEaAxj00TkxVSALRVoWDylvJkiW1VTNmzND3jIwM2bp1q9SpU0dGjRqlR+EQsW/fPpk4caKm4R8SIAES8AIBGncvjHKC+2iowmHmbhjiUJpkqMJB7e3NN99UT3bQb0eYPHmyNGnSRB5//HFVgcvJyZG///3vGgfvdPBLDyU5qMNBkY6BBEiABLxEgMbdS6OdoL7GUxUOXcTZewjmwDc9DD5m7gwkQAIk4CUCNO4uH22vqcJhOOfPn6++66HnfvXqVVm9erWsX7/e5SPN7pEACZDATwRo3H9i4cqrZFCFGzx4sE8VbufOnb5xiEQVDpkxU4eb21q1aulmO7i3pXH3YeUFCZCABwjwnLsHBjmRXQxFFa5t27bSrFkzfZnbGokqHPJ3795dl+ZPnDghBw8eVMlZc7m8JgESIAG3E+DM3e0j7LD++Su/mZvnHwd1t1mzZqkqHDbJIX7q1KnmLAGvu3XrJtiMh/TXr1+XdevWBUzHmyRAAiTgVgI07m4dWYf2Kx6qcE888YRUqlRJIA8LyVgGEiABEvAaARp3r414lPvrVFW4s2fPCl4MJEACJOBFAjTuXhz1KPaZqnBRhMmiSIAESCBKBGjcowTSy8VQFc7Lo8++kwAJOJEAd8s7cVTYppAJpKamyp133hlyeiYkARIgAS8QoHH3wig7pI9QhVu7dm1U/bz37NlTz7Q7pItsBgmQAAk4ggCX5R0xDN5oBHzL+x93K2zPIRZTrFixwhbD/CRAAiTgKgI07q4aTud2Zvz48XL8+HGpUqVKyI2sXbu2jB49Op+624QJEzQ/luOhNIcA//FUfVMU/EMCJEACSoDL8vwixJwAVOHuuOMOmTZtWlh1wS0tZF3HjBkjMOqHDx/25c/OzlaHNqdOnZKqVav67vOCBEiABEhAhDN3fgtiTgCz782bN8uZM2fCqgvyrnbqbvAhf/78eZ+ue1iFMzEJkAAJuJgAjbuLBxddS7QqXO/evdVT3P79++Xee+/V5+OVK1cWLKtj9m0XDHW3OXPm+NTd6ErWjhjjSIAESOBHAjTuLv8mYANbjx49EtbLsmXLqnDLU089pW0oWrSoPkMfOHCgyrLippUqnKHudvPNN8uIESOkT58+9BOfsJFkxSRAAslEgM/ck2m0krCtZlW4Xr16yYULF2Tv3r0+w44uWanCpaWlqbrbyZMnqe6WhGPPJpMACSSOAGfuiWPvyZrtjsL5x3Xt2tWn7pabm5tv1j5v3jypWbOmjyHOz+fk5Ojs3neTFyRAAiTgUQI07h4d+ER1OxxVOKi7VaxYUZ/Z4xidOQwfPtz8kdckQAIkQAImAjTuJhi8DJ8AVOEWL15smXHmzJmybds2y/hgEd98843gxUACJEACJBA6ARr30FkxZQACUIUbOnRogJgfb1FUxhINI0iABEggZgRo3GOG1jsF04B7Z6zZUxIggeQgwN3yyTFObKUNgTZt2gjO09900002qRhFAiRAAt4hwJm7d8Y6YT19/fXXJSUlxVc/PNVhs1w0wtKlS6VEiRLq/e7AgQMCd7QMJEACJOB1AjTuXv8GxKn/f/3rX2Xjxo1aG46sRSNgpl6uXDlJT08XnIVnIAESIAES+JEAjTu/CXEhgB3v/sfZQqkYR97g5AYzf/womDRpkqrALVu2zOdTfsaMGVoU5F+3bt0q8GgHFToo0OF8fGZmpmCGz0ACJEACXiFA4+6VkU5wP+GdDq/vv/9e4Cs+KysraIv69+8vHTp00KN0b775prRr10491iHj5MmTpUmTJvL444+rOhwMP6RfEZ5//nm5cuWKzJo1S9N0795d3nnnHS7ZKx3+IQES8AIBGncvjHKC+wjD/Omnn0qdOnXkoYce0mX0vn37Bm1Vx44d1SDjrDzCoUOHfHmOHDkixYsX18+ffPKJ737z5s2lVKlSWh9m8BcvXlTRGfywmDt3ri8dL0iABEjAzQRo3N08unl9S7QqHPCuXLlSKcPA//Of/xRIwDZo0MA309bIAH9gpHfs2BEgxvpW3bp1NbJGjRqCFwKO6sHIM5AACZCAVwjQuLt8pBOtCueP1zCymFUby+hWqnCXL1+W+vXr+xdh+/n06dMav3DhQvnss89s0zKSBEiABNxKgOfc3TqyDulX7dq1BepukH5t2LCherPDDw7zUrqVKtyePXsEM/EuXbpob1q3bi2NGjWy7Rlm+teuXZNBgwb5Zu6dOnWSpk2b2uZjJAmQAAm4iQBn7m4aTQf2pUKFCqrs1q9fP23d9evXZdGiRQH9xfurwk2fPl03xcFQ44X45557LmgvkW/UqFGC3fMIqHP27NlB8zEBCZAACbiFAI27W0bSof3ADL1Hjx6CGTxCoONwdpvrnn76ac1Xr149OXr0qF4bf7Kzs7Vs47Pxjp34hse6okWL8gy8AYbvJEACniFA4+6ZoY5NR0NVhQtk1MNpkb9hDyUvvdWFQolpSIAE3EiAxt2NoxrHPkEV7qmnnrKskQbWEg0jSIAESCBmBGjcY4bWOwXTgHtnrNlTEiCB5CDA3fLJMU5spQ2Be+65R73fURXOBhKjSIAEPEWAM3dPDXdiOhtLVbglS5aopzr4rj948CBdzCZmiFkrCZCAwwjQuDtsQNzaHKjCvfXWW9q9aKrClS9fXkaMGCEnTpxwKzr2iwRIgATCJkDjHjYyZoiEAGbWx44dCzvrsGHD8qnCTZkyRX3MQ+WtZMmSWt60adPkhryrjJdeUpEZ+LDHOffq1atr/L59+2TixIl6zT8kQAIk4AUCNO5eGGUH9BHCLRCNMVThdu3aFbRVcHwD8Zht27aJoQqHmToCjLyhCgfjblaFg8Mb+KUfO3asLtm3aNEiaF1MQAIkQAJuIkDj7qbRdGhfAqnC/dd//VfQ1sJtLHbih6MKh0Jx9h6COfBND//1mLkzkAAJkICXCNC4u3y0naoKBz/zZgnXQMMQiSocypk/f76MHDlSXc5evXpVVq9eLevXrw9UBe+RAAmQgCsJ0Li7clh/6pRTVeFq1qzpM+7RVIVDzzFTHzBggNSqVcunHU/j/tN3glckQALuJ8Bz7u4f44T2EJvbunfvXihVuM6dO2sfWrVqFVQVDglRH5bmsYMex+Nyc3MTyoCVkwAJkEC8CXDmHm/iHqsPRrZ///6qDIeuYyUhXFW4J554wqcKN3Xq1KAEu3XrpvWhLijCrVu3LmgeJiABEiABNxGgcXfTaDqwL4YqHGbwMLaBBGSirQqHHwOVKlWSMmXKRHT8zoEY2SQSIAESCIsAjXtYuJjYnwBm5piJWwXsdN++fXuhjWy4qnBnz54VvBhIgARIwIsEaNy9OOpR7DNU4eBoxip89dVXVlG8TwIkQAIkECMCNO4xAuulYmnAvTTa7CsJkEAyEOBu+WQYJbbRkkBqaqrceeedlvGMIAESIAEvEuDM3YujHuc+x1IVrmfPngKp16ysrDj3itWRAAmQgHMJ0Lg7d2xc1TKowm3cuFH7FC1VOBSWkZEhxYoVcxUrdoYESIAECkuAxr2wBJk/JAJQhQt0DM4us526G5bjx40bp9nhP56qb3YkGUcCJOA1Anzm7rURT1B/oQq3du1aWbVqVcjPyM3qbjDeR44c8bU+Oztb4NAGwjJVq1b13ecFCZAACZCACGfu/BbEnEAgVTg7xzVGg4Kpu8GH/Pnz53267kY+vpMACZCA1wnQuLv8G5DMqnBUd3P5l5PdIwESiBkBGveYoXVGwcmsCkd1N2d8h9gKEiCB5CPAZ+7JN2ZJ1eLCqMJR3S2phpqNJQEScBABztwdNBhubEphVOHs1N3mzp0r0ITHYweENWvWCI7YhfIs342c2ScSIAESMBOgcTfT4HXUCRRGFc5O3S09PT3qbWWBJEACJOAWAjTubhnJBPUj1qpwVHdL0MCyWhIggaQmQOOe1MOX+MZTFS7xY8AWkAAJkIA/ARp3fyL8HDYBqsKFjYwZSIAESCCmBLhbPqZ4WTgJkAAJkAAJxJ8AjXv8mbPGBBN45JFHZNiwYVFvRYcOHdTFLv3cRx0tCyQBEgiTAJflwwTG5MlPoFGjRlK5cuWod2TIkCECp0EMJEACJJBoAjTuiR4Bl9Rfu3ZtGT16tFSvXl17BO9yEyZM0Oubb75Zxo8fL1WqVJHc3FzJzMyUpUuXalybNm0Ex9pSUlLkwIEDcsstt6ja21133SVdu3aV0qVLC3bMFy1aVEqVKiUzZsyQXbt2iV2Zy5Yt07KaN2+u5+A3bNiggjXt2rWToUOHal2ofPXq1dqGESNGyOnTp8WuD5rQ5g/6B9U79JGBBEiABBJNgMvyiR4Bl9Q/ePBgFXAZM2aMGvXDhw/7evb888+r5vqsWbPk3XffFXieu+mmmzQexhZysHPmzNEfBiVKlNBycMQO13/84x91lg3DDwU4qMsh2JVZpkwZadGihSxZskQ+++wz6dGjh+b58MMP5ZlnnpEvvvhCzp07p9f4DMOOYNcHTWDxp2nTpnLHHXfItGnTLFLwNgmQAAnElwCNe3x5u7a28uXL6yz58uXLgln7ihUrtK+YPWPGDeOM2fbFixfl6tWraqQh1VqyZEmZN2+ewPBCDtYccMxu8+bNutT9wQcfyP79+wWG265MI/+OHTtk06ZNkpGRoe3CUjwCtN/Rhh9++EGv8dkIVn0w4q3esWKBdp45c8YqCe+TAAmQQFwJcFk+rrjjX1m8VOEMBTfMwGG8seS9bt06qVu3rna6Ro0aghcCjs7BwLZq1Uo/w2gjHDx4UN+NP9euXTMuBT8arly5osvzdmUaGaD3joBVAYQKFSrou90fqz7Y5endu7f+4EAf7r33Xl2hwPP81NRUMdpgl59xJEACJBALAjTusaDqoDLjpQpnKLhhdo5n2H369FHjbix5L1y4UJfIzWiMpfkGDRroLLp+/frmaMtruzKNTHYb2xD3s58VXLSy6oNRZqD3smXL6j6Cp556SqOxNwD7DgYOHCgjR44MlIX3SIAESCDmBAr+h4t5lazAjQTS0tIEz8lPnjypM3BsnEPA8jhm4IMGDfLN3Dt16iR4To1n6Fgex3N3fH700UdDQmNXZigF4Dk8ZtdQrDMHqz6Y0/hfv/LKK/qIAXsB8Lpw4YLs3buXht0fFD+TAAnElQBn7nHF7d7KsLO9X79++nwchh1L8kaYPn26jBo1Sp9/497169dl9uzZGo0Z/ZNPPimTJ0+WEydO6D0swZsDZtrIY56N25WJvEhvDubP7733nrRv316wwQ+PLXDm/csvv9Td+VZ9MJdld21uo106xpEACZBALAncUK1aNduDuWvXrvXtNo5lQxJVdrz75+b6KlasqM+fcSQsUMAyPJatMbsPFB544AGd4Rs74gOl8b8XrEz/9ME+B+tDsPyMJwESIAEnEODM3Qmj4JI2YPOasYEtUJewDO8fcBQNu+m/++47adasme60909j9zlQmXbpg8X59wGPGhYvXmyZbebMmbJt2zbLeEaQAAmQQCII0Lgngjrr9BHYuHGj3H///TqjnzRpUoFNd76ECbrAcTzsCbAKFM2xIsP7JEACiSQQ1Li7/RlivPvn9vrC/TJ//PHHgpeTAw24k0eHbSMBEghEIKhxx4YjN4d498/t9UX6XcG5cCzPw7VsLMN9990nxjl5eMuLxrI+XOjm5OTInj17Ytl0lk0CJEACIRMIatxDLokJSaAQBHr27Kkuaf2N+8MPPyyVKlWSl156qRCl/5QVx9/gra5JkybqTCcaxh1n+uH/nsb9J868IgESSCwBGvfE8mft/yIAN7HFihUrwKNx48ZRVXAz3OKuWbOmQF28QQIkQAJuIUAnNm4ZyQT249U8n/C33357gRbg/m233ab3ly9frufgoQYHw/riiy/qfSzHr1y5UubOnavCLUYhUHB77dVXtVx4fMM1XnlHNzUJPOH9z//8j/z5z3+W119/Xcs28kb6jtm80T7U1blz53xF4Tw83Oqi/fiR0LBhw3zx+GD05z//8z8LxPEGCZAACcSLAI17vEi7uJ7cPIcx//Zv/5avhzjWViJPFAYuXREg3Qo1OPiPx/Exw+863qHwBpeyhuFGegjJ/D5PMtZQcMM1Xobr2alTp0rx4sXVGQ6c0sC7nOHOFvkjCZBtxYZH/PA4+Y9/yBNPPOFrE5zbdOzYUbKysmTs2LGyZcsWgdCMOeCHDHb8Y4Og2YmPOQ2vSYAESCAeBGjc40HZ5XXAAGP5HAGz6DvvvFNFYXB23RyOHj0qMMrbt2+Xl19+2ReFHwDnz5/3fTYurBTcoAqHHwuBlOaMvOG+w689FOqwwgAFOnjMQ4BBR4DLXDyfxw+TQ4cOyaJFi9TQa2TeH6wkTJw4UXbv3q1pjPt8JwESIIFEEOAz90RQj2Od2OQVjefLDz74oGWrMVPFhjgsY6ekpOi5dXh6+/zzz/Pl+eijj/J9jvSDsds9kNJcpGUas374hUcwpGmN1QTs5IdPe6uAWTx86Pv7q7dKz/skQAIkEEsCNO6xpOuAso0ZaCybgpk4dozDfSyW01u2bClFihSRN954I1+1gWbn+RIE+IBlcn8FN2NpPpDSnFEEltTxrD4zMzPfDNuIR7klSpQwPvq02G+99VbfNX6onDt3TtPA372dat2RI0cEkrHwef+rX/1KICjDQAIkQAKJIsBl+USRd1G9WK7GrPWWW27RDWkw7DCc0ZipB1JwC6QKh+VzKMsZARvysHyPV6CANuPHCI7ZIWAvAMRl4Nce94YPH6738cMFASsgWDEwNtlBix5H6owAdTsY+A0bNsgvfvELPWpnxPGdBEiABOJNgMY93sRdWh+8uF26dElnunhWDmPvf4bcrMxmYMAueTw2uOOOO3RDnLET3YjHZrmvv/5an2MjDkvxCJghY2Y+b948zQ89dfiB9w9WHgGXLFki0GJfsGCBPPfcc5oN+wCwrI57HTp00E1z6AsC6jt27JhuskM7sKmuTJkyGmf+g9326Dc25zGQAAmQQKIIUBUuzqp38VaFS9QXK171wsBDac6Qi41GvZihY5OgVahXr55gcyADCZAACTiVAJ+5O3Vk2K6QCMTC77udYUejaNhDGhomIgESSCABLssnED6rJgESIAESIIFYEKBxjwVVlkkCJEACJEACCSTAZfkEwvdK1bFQYvMKO/aTBEiABCIhQOMeCbUkyRNtRbVIux0LJbZI28J8JEACJOAFAjTuLh7laCuqRYqKSmyRkmM+EiABEoiMAI17ZNwcnQsOXJ568kkpVry4thMKZwi//s1vfMIr8KG+efNmPc+N894nT56UESNG6PlsKLzheNnlPMcsq/LyvvXWW5p/2bJl6s/dcAwDhy2v/qtszM5HjRqlZ8+RGP7i4Ws9WIAS2+9+9zs9c34lzwvcsrx2vfPOO5qtTZs2MjxPiS0lTwoWTmbgJGfcuHEF3NoGq4PxJEACJOA1AjTuLhxxuICFI5UhQ4aoctm0adO0l4bbVnwwVNp27dol//d//+eTbIXYC7TVccTsoYcekoEDB6r7VjiSgdOWFi1aqGjK3XffLfA3bxj3QYMGCfyvw7kL1NqQLpQAZy9XrlxRJbZf/vKX6iQGvurRVjimOfftt/Laa6/JgAED1OsdxF0YSIAESIAE7AnQuNvzSdpYQ1ENhtbwsubfGUOlDfcNN6uzZ88WiL5g1mycIYe/dRh3BLh+3bRpkxp8+E+HC1bMquEd7oYbbhD4YEd9htSrZrL4YyixoRwoscGoY3UArmSxqoAfC3/4wx9k//79Uixv9j506FCLknibBEiABEjATIDG3UwjDtfwUQ4vdYUNPXr0KGwRAX2/v/DCCwIPbN98843k5ORoHfiBYARDhx3xCBUqVNB3iKaMHDlS9dWvXr0qq1evlvXr12uc1R87JTb4bkeAYUfADwgGEiABEiCB0AjQuIfGKWqp4qHSZjQ2kKKaEYd3f5W22rVrC2bpWFqHMU1NTZVnn302nyqbla92zNSxdF6rVi1JT0+Xvn37FjDu4SixYRaP0LBhQ9VPt1Nk04T8QwIkQAIk4CNAJzY+FO67CKSoFkovoYqGF6RLQw3du3fXpXn4eMcPg9zc3AJZDSU2LPsjIJ2VEhvSQmkNz92h9vboo48WKI83SIAESIAEAhOgcQ/MxRV3DUW1WbNm6aMAQ1HN6Jy/Stvx48cFy+5YXocyGp5zI5jTma/Ncd26ddONdn/+85/l5z//uaxbt07zmv8YSmx4xj516lSNslNig1472ozVju+//17T45k+AwmQAAmQgD0BqsLFWRXOfjicEVuuXDk9Cmc8Vw+1VZjtY0c9pFHDDcGU2KC9jh350FtnIAESIAESsCfAZ+72fDwZe+HChYj6ffbsWcErkvBFAInVZ555RnfM43hes2bNQtqBH0ndzEMCJEACbiNA4+62EXVRfzZu3Cj333+/riJMmjRJsIeAgQRIgARIIDgBGvfgjJI6BY7dRePYXCIgYMe8sWs+EfWzThIgARJIVgI07sk6cmy3JQGo0MFVLQIc7mDnfbIFN/Qh2ZizvSTgJgLcLe+m0UxwXx555BEZlucLPtEBfu5xPj4tLc3nVjceberQoYOeSgjFp77RHitmieqD0S6+kwAJJDcBztyTe/wc1Xq4oq1cuXLC25QoFTr48rdy8mMFxYpZovpg1U7eJwESSC4CNO7JNV6ObC1U6OD3PSUlRdsH17MIUJkzxGpgrMwqdHB2g3jsiDdU6OC0BkI02EiHYFahg996qNCtWrVK4+BNb/To0flU6CZMmKBxdn+gQjdmzJgfVejyBGtQx9tvv61Z4E8f3vXQjwMHDoSlQgcBHPgJqFKlil31vrhQmPkS+13492Hp0qX5lPTMfcARQ7Tt888/9yuFH0mABNxMgMvybh7dOPUNKnQw0jjOdu7cOb3GZ8OwoxkQgYHqG4zmjBkz1FkO7l+6dEnmzZunhnrv3r3y+OOPS9WqVRHlU6GD8xvslDdvDBw8eLBAIQ6GGkb98OHDmifYH7QLjnjmzJkj+IGBs/PVqlXTbPiBgrP9iKtevXrIKnTwoHfHHXeIob4XrA2ID4WZVTmx6INVXbxPAiSQnAQ4c0/OcXNcq+OtQle+fPmIVOhKlCgh8HwHFbrdu3cLdO0NFTr8WIAvfX8VutatW6tKnj90nL9ftGiR/jDBqsSZM2f8k9h+DoWZfwHwsW/ug1lJ73//9381ztwHuO9lIAES8B4BGneXjzmWs52sQjd9+nRVoYPzm0hU6DDLNlToArm8NQ+vvwodVg2QFzN3OxW6mjVrSuPGjc1F6TWc/fTu3VtXGPCD4N5771WXvdh3ANEdQ0GvQMZC3PDvw8WLF319aNmypZZsKOkdOnSoEDUxKwmQQDIToHFP5tELoe3Y4GVezg4hS8RJUNfPfmb9pCeQCh1mooVRobv55pv12X2fPn0K+LOPRIWuQYMGqkdvVqH7y1/+IngFChDXgUiOMUMuWrSoLukPHDhQffQjDx4hYJk/MzNTdu7cma+YYMzC6QPkhBEMJT1I9zKQAAl4k4D1f2Jv8mCvC0GgMCp0UIoLR4UOx9xuvPFGOXnyZEQqdKgPG88Qtm/frmfhsaEPz93DUaGDCA783RsvzOaxdwDiO0Zo27atus+FC13/EIyZnZKe0Qf8AEAfvvrqK4GwDnbth9MH/zbxMwmQQPIToHFP/jF0TA8iVaEbNWqUwEiGo0LXtWtXWbx4saxZsyYiFTrU1759e9myZYvO1AExGip0MLRWIVBcMGZ2SnqB+oB7WM2gkp7VKPA+CXiDAFXhktg9ayhf0WRwP1u2bFn1H4+d9uEEzFyhQocjaOEGOImxU69LBhW6YH2A9C4eD2BfAAMJkIC3CPCZu7fG25G9xaawSAKOrYUrS2vUE8iw44gZjuwliwpdsD7Af8C+ffuMLvOdBEjAQwRo3D002OyqPQE3qNC99dZb0qlTJ10JwdI8lfTsx5yxJOBWAjTubh1Z9itsAm5QocPZfbwYSIAEvE2Axt3b4+/K3jtJUQ1n33F+n9K1rvyqsVMk4FgCNO6OHZrkaxgUzipVqiQZGRkJbbyhqAYf7F9++WVCJV8fe+wxgYMeGveEfiVYOQl4jgCNu+eGPHYdtlI4i12NgUumolpgLrxLAiTgHQI07t4Z65j1NBSFM7erwg0fPlzgrAaKcliGnzRpku/8vAEeLmnHjRunZ/NxRHHlypXqhOfWW29VMRt4sIPCGwMJkAAJFJYAndgUliDzh6Rw5mZVuP79+0uHDh3UtSxU6t5//331nmf+atx2223qWAab3Qxf/2ACF7EQn/n000+le/fu5iy8JgESIIGICXDmHjE6ZjQTCEXh7OjRozJ16lTNBnepCLNnzxY4o4GWOtynImAm+/XXX+v1jh07ZNOmTZKVlaVe7LD0f/DgQYmnKpw2xOYPVOXgJnbmzJmayl+wBR7jMJPftWuXL41RHIw99OTxgre9f//3f9f+GvF8JwESIIFICNC4R0ItifJATMSYKRam2dEQn/noo48KNCEZVOEKNNrvBmbg+BFiFfBD5Nq1a4KNfv7B/EMAznNatGhB4+4PiZ9JgATCJkDjHjay5MoARybxCvCd7kZVOIOflbobxFrMKnJGeuP9yJEjMn/+fMEPmUGDBqkPeyOudu3axqV6xzt8+LDvMy9IgARIIFICfOYeKTnmK0AgmMJZgQz/uoHjc1iad7oqnJW6G1ZH6tatK126dNEetW7dWvD4wAhQm4OB37Bhg6bBET0jIC0MfM+ePfWHEYRsGEiABEigsARo3AtLkPl9BIIpnF2/ft2XFhcQfMnOzhanqcJNmTJFvv/+e20rZuX+wV/dDTNy+HnHrByPQKBPD0Eb/4Cd8Hg2Dx/2RkBZc+bMkUcffVRdxZ45c8aI4jsJkAAJREyAqnAuV4WL+JsRx4xuUoXD7ndsHAwl4IfAvHnz5JNPPtGjcN9++20o2ZiGBEiABIIS4DP3oIiYINYEnKIK9/vf/96nChepolqoht3MNFJlO3MZvCYBEiABMwEadzMNXnuawJtvvin333+/Kqrh6FqsFdU++OADfRbvaejsPAmQQEwI0LjHBCsLTUYC8VaFw7N2BhIgARKIBQFuqIsFVZZJAiRAAiRAAgkkQOOeQPihVv3www/L0KFDQ03uSxdpPl8BvCABEiABEkhKAlyWT4Jha9y4sVSuXDnslkaaL+yKmIEESIAESMBRBGjcHTAccEuKs97Vq1fX1uzbt08mTpwoUFt76sknpVjx4nr/tVdf1fdf/+Y3cvr0aRk/frxgV3fRokXlcp6jlFV58W+99VbQfPB1DnWyKlWqSG5urkCNbNmyZQ4gwSaQAAmQAAlEgwCNezQoFrIMOD+Bf3I4PymeZ8jhXxzhww8/VKcnQ4YMUaGUadOm6X0YdgT4Is/IyFDBlYceekgGDhyoAivB8kG85erVqyraAm9paWlp6s8cDlYYSIAESIAEkp8An7k7YAxvvPFGueGGGwTe0DBrh/a5EQy1NbgwxTVeRoCiGo5rYfndrKiGeKt8zZs3l9KlS8uBAwcEM3icMYeh79Wrl1Es30mABEiABJKcgOdn7k5QTYOoyMiRI3UmDUO7evVqWb9+fdCv1gsvvKB64HCCkpOTo+kx87cL8IGOUKNGDX3hGj8MInUkg/wMJEACJEACziLgeeMeT9U0q6HHbH3AgAFSq1YtSU9Pl759++Yz7oHU1iA2At1zLOVD3zw1NVWeffbZfKpsgfIZS/oLFy6MuZMWq/7yPgmQAAmQQGwJcFk+tnxDKr179+6CpfkTJ06oocYmN3OwU1uDohpegRTVAuWD7ji0xfGcH7N3hI4dO0rTpk3NVfKaBEiABEggiQl4fubuhLHr1q2b9OvXTzDThnLaunXr8jULamvt27eXmTNn6rP54cOH+xTVsJyPYDxzNyuvBcr35Zdfqq44dudDtAQB9eL5PQMJkAAJkIA7CHheFc4pw4jZN2RCIR0aTihXrpwehYtEfARH73CMDisGDCRAAiRAAu4hwJl7jMcSy+2LFi2yrAWz8e3bt8vZs2f1ZZnQIuLChQsWMcFvG7P94CmZggRIgARIIJkI0LjHeLSg0T1s2DDLWmhgLdEwggRIgARIIEICNO4Rggsnm9mAr127Vnr06BFOdqYlARIgARIggbAIcLd8WLiYOBYEsG8gEt/5sWgLyyQBEiABNxDgzN0NoxhBHx555BE9Qgf3teGESPMFqqN8+fLy0ksvqetdxF+6dEm982GXf2FDNNtZ2LYwPwmQAAnEmwBn7vEm7pD6GjVqpG5rw21OpPkC1VOkSBF1pPObPCEcnNP/5z//GfC8fqC8we5Fs53B6mI8CZAACTiNAGfuThuRKLXHTmkO2vApKSlaE1zdIowYMSKo0pxdvkiU5nB8DyI2RnjjjTdk9OjR0rBhQzl06JBxO+B7pP0LWBhvkgAJkIDLCNC4u2xAje4ko9Jc27Zt1YlPMMOOPkbaP4MP30mABEjAzQRo3F06umalOSjEwX+9EQzFOIjMmFXmEA9PdRUrVpQ2bdr4vN7Bh/3XX3/tU5rzz2cozcG1rb/SHM7woyz/ALla8/l/lIF0K1eu9E8a8HOk/QtYGG+SAAmQgMsI0LjHeUDjpULnFKW5mjVrBny2b3a+AxGcZ555RsJhE2n/4jzcrI4ESIAEEkKAxj3O2OOlQuckpbm//OUvlpSxSgDpWrjdDcRm8ODBAje5mZmZsnPnTl85kfTPl5kXJEACJOByAtwt79IBThalublz5wpU8BYsWCD169fXl3lI8By+WbNm+jLfL0z/zOXwmgRIgATcSIAzdzeOal6fQlWamzVrlirNwUXu8ePHJTs7W0JRmjPni1RpDjKzpUqV0hEw75qHWt3777+fb2SgXGcOkfQP7WQgARIgAS8QoCqci0fZ7UpzkfbPxUPOrpEACZCAEuDM3cVfBLcrzUXaPxcPObtGAiRAAkqAz9z5RSABEiABEiABlxGgcXfZgLI7JEACJEACJOC6ZfnevXvL22+/LeZz1OEO83333Se33HKLZtu0aZOcOnUq3CIKpL/33nslJydHPv744wJxvEECJEACJEAC0STgupk7jDu8pBUmwG85/JunpaXJ7bffXpiifHkfe+wx6rj7aPCCBEiABEgglgRcN3OPBqwVK1ZoMWvWrIlGcSyDBEiABEiABOJKwDHGfdmyZXLgwAGBj/EbbrhBNmzYIKtWrVIYTZo0kTFjxkjZsmXlypUrgrRYekeAP3Kc0Ya/88OHD+s94w9m8OPHj5cqVaqooxR4OVu6dKkRHdG7XVtQ4PDhwwWOV6C6hmX4SZMmFfDfnpqaKuPGjRP8eFi7dm1E7WAmEiABEiABErAi4Jhl+TJlykiLFi1kyZIlqvHdo0cPX5vhd/z69esyZ84cOXHihCqCVatWTeMhQ/rtt9/Kiy++KMY9I+Pzzz8vxYoVEzhceffddwVezW666SYjOqJ3u7b0799fOnTooG5S8WMEjlggcGIOt912m7pZ3b17Nw27GQyvSYAESIAEokbAMcYdPYKqGDawZWRk6Oy9UaNG6o60RIkSsnz5cvnggw90Joy0HTt2lMqVK0vJkiXVsCPOmOkjHisA8H6G1QB/pTLERxLgHtWqLSgPbcLmu5kzZ6oeOVTPsrKyfFWhHZjJ/+1vf9M0vghekAAJkAAJkEAUCQRdlscSeTSWjs0zcav2w/UpwjfffKPvFSpUkCJFiuj13r179f3SpUty9epVnaXfeeedeu/gwYP6vn//fn3Hn7p16+p1jRo1BC+Er776Si5evKjXkfwxZv2B2oLy8GMCP1CsQvny5eXatWuCDXsMJEACJEACJBArAkGNO3x6h2KYo9FAf//hKPPMmTNaNDTFjWs8zz537pwu3yMSkqHwi24YdNw7ffo03mThwoW+dHrD9MdKccxIgvZgpm4Eo/5AbUGay5cvFxA+MfLi/ciRIwKp0unTp+ujBbSNgQRIgARIgASiTcBRy/KBOodZOZ639+rVSyAPmp6ersm2b9+uBh2z+AEDBmhcz549fUVgBo1Z8qBBg3wz906dOgnESoxgpThmxGOJ/YEHHtCycc+uLYiHHjl+YHTp0gUfpXXr1oJHC0b44Ycf1MBjsyDSYHMeAwmQAAmQAAlEm4CjjDuMuDkYn19++WVdyn7llVekffv2smXLFt8OdDwywPN1xPlvXsMMGVrgeIaPdE8++WSBNKgv0IoB7mNzH3boo2xDtcyuLagPuuT4QYH6xo4dK9go6B+wYx8/HLA5j4EESIAESIAEok0gqVTh8KwaxjNQwHN1K0lPPCsvWrSonDx5MlDWiO7ZtQUF1qtXT44ePRpR2cxEAiRAAiRAAoUhEPSZe2EKj3ZeK8OOeqwMO+Ki4T4W5ZiDXVuQjobdTIvXJEACJEAC8STgqGX5eHacdZEACZAACZCAWwnQuLt1ZNkvEiABEiABzxJwnXGHcEy5cuU8O6DsOAmQAAmQAAm40rgXVhWOXwsSIAESIAESSGYCrjPuyTwYbDsJkAAJkAAJRIOAY3bLx1sVDl7tRo8erefgAXLfvn0yYcKEaDBlGSRAAiRAAiSQUAKOmbnHWxUOrmchOgP1Nhh1f7nYhI4KKycBEiABEiCBQhBwjHFHH+KpCgcRF4jiwB88Zu0rVqwoBEZmJQESIAESIAHnEAi6LO9WVTgIuIwcOVI14uGffvXq1bJu3TrnjAxbQgIkQAIkQAIREghq3N2qCofZOgRnsLN+xIgR0qdPHxr3CL9EzEYCJEACJOAsAo5alg+Exk6JDTKvkarCpaWlqYgM/M2jjtzc3EDV8x4JkAAJkAAJJB2BoDP3ePbIUIEz6jQ+Q4ltyJAhqs6GOH9VODiugXLbhQsXjKz6DpW2UaNGqSocbqC82bNna1zXrl2lX79+qggHw84lecXCPyRAAiRAAi4g4GlVOOjDY5c+VgAYSIAESIAESMAtBBw1cw8G1U6JLRJVuG+++UbwYiABEiABEiABNxFw/DN3N8FmX0iABEiABEggHgRo3ONBmXWQAAmQAAmQQBwJ0LgHgP0f//EfctNNNwWISZ5bbuhD8tBmS0mABEjAWQSS6pl7vND17dtXvv/+ezl16lTYVT7yyCNSqVIl3w79sAuIUobC9CFKTWAxJEACJEACCSJA4x5l8I0aNZLKlStHuVQWRwIkQAIkQAKhE3CMca9Tp46eSa9evbq2Hh7kJk6cqNdmxTjc2LBhg7z66qsaN378eLn99tulaNGicvmHH2RV3v233npL4+AvHk5qbr31Vj3jnpmZKSgLwa4+xLdt21Y92MH9LupbtWoVbkuTJk3kd7/7nZQtW1au5PmlX7Z8ubzzzjvSrl07GTp0qKSkpGg6uLNFgPe706dP67Xdn2HDhmmdyJ+TkyNTpkyRQ4cOiV3/UJ5VPsRZ9QFe+caNGydVqlRR5z1mLsjHQAIkQAIkkNwEHPPMfdCgQVKqVCkZO3asGvUjR474yJoV47Kzs+XBBx/0xX333Xe6BA6DuzfvB8HAgQOlatWqGl+6dGmpX7++LF68WPbu3SvwSmcEu/qQBjPwJUuWyGeffSY9evQwsqmxhUveF198UU7+4x/yxBNPSLVq1eTDDz+UZ555Rr744gs5d+6cXuNzKIYdznQ6duwoWVlZ2n846YGwDYJd/+zyIa9VH6ZOnSrFixdXhz7vvfeeckn2PQboLwMJkAAJkMCPBBxj3G+88UZblbZAinHoAjzOwQA3btxYvvrqK+0VZupG2L17t7z99tvy7LPPqje6n//85xoVSX34oQCZ2OV5s/UPPvhAJk+erGXBMCP8/e9/l4sXL8oPeSsIuMYrlNCpUyd9vj9z5kydrS9atEgNPfLa9c8uH/IGYta8eXPBj54DBw6oX320Fy58e/XqhSwMJEACJEACLiAQdFl+z549snbt2kJ31Tz7DVSYodIGY2aotK1fv96XFDN2BMPpTIUKFfTzCy+8IPXq1dP7WM5GwKzUCFjaNgJmwS1btpR3331XIqmvSJEiWhRWARAMw4iZe2ECVixgiAMFu/7Z5UNZgZgZba1Ro4bghYAfRegLAwmQAAmQgDsIBDXuxuw01t01VNpq1aol6enpgt3eZuOOpXD/ULt2bX2ejqV8iL+kpqbqDP1nP/tpQQJpjABjePjwYf0YSX1nzpzRvFgZMK7xjBzL8EZAO831G/ft3qEpj1UB/xCsf1b5jHICMTMeEyxcuFBXPIy0fCcBEiABEnAPgZ+sYIL71L17d1VpO3HiRNgqbTh6htevfvWrAr1o3bq1wEjiOT2MLp5nI0RSn1mhDvUNHz5cy9q+fbu+4w8eEWC3PDbshRqwOlK3bl3p3LmzZmnVqpU+LzfyW/UvWD4jv/kdKwTXrl0T7DkwZu54rNC0aVNzMl6TAAmQAAkkMYGgM/d49a1bt24+lTaot/mrtBkKcUZ78BmCL1h6HjlypN42nrmb02L2iqV+7HqH4TVm3JHUh0oMhboFCxZomWaFOsRjg1r79u0Fz89RJ34A2Pm9Rx6o182aNUs358Hoos3Y9IYfE3b9s8qHMhHMHMyfDbW8efPmaTqDkX7gHxIgARIggaQnEFQVLp49xAwVO+PtBGICtadcuXJ6FM54Hm+kwV4BGLBPP/1UDZ15+RxpIq0PeTHTxs74aAfsHzh69Gi+Yq36Z04UKJ85PtA1jh3iCCFWSxhIgARIgATcQ8AxM3cgPXv2rL7Cxeuv4+6fH+UGCpHWh7JCNezYlY/d71YBM3zzsr6/YUe+YP1DmkD5cN8uGCsddmkYRwIkQAIkkHwEHGXco40Px9XM5+WjXX4o5X377bfqaMYqLQ2sFRneJwESIAESiJSAo5bl0QkspQc7NhdpZ5mPBEiABEiABLxAwDG75b0Am30kARIgARIggXgQcPWyfDwAxqOOaCvNwbf8kCFD1E8+NtP9+te/jkc3WAcJkAAJkECcCNC4xwl0YaqJttLcjBkzVJwGbnINr3uFaR/zkgAJkAAJOIuAZ407HNuMHj1azCp0EyZM0NHBzBZqbGbVtKVLl2pcmzZt1IMePNPBP/stt9yiCmt33XWXdO3aVf22Yxc+jpjBIx4M6a5du9SPu1WZZtU7swpdMKU5uz7Yfc0gaAO/93PmzKFxtwPFOBIgARJIUgKefeY+ePBgFYEZM2aMwKgbbmkxjs8//7wUK1ZMHcvADz282RmqaZB1xXl6GEb8MChRooSWgyNvuP7jH/+oHupg+E+dOuUTZLEr06x6Z1ahC6Y0Z9cHu+9jqII2dmUwjgRIgARIwLkEPGvcIamKWTL8s8PPPLTfEaCahhl3INU0SMlCFQ6OcWB4DY13Y3hx7G3z5s3qYQ7H8Pbv369OeezKNPIGUnBDHAyxldKcVR+MMvlOAiRAAiTgTQKOW5aHwY2nCh1m4IYKHVzewvMcQiDVNPh8R4DRRoB7WHOAz3Yj4EfDlStXdHnerkwjfSAFNyPO6t1QtvPvg1V63icBEiABEvAGAccZd/g5j8c5d0MVDs/XR4wYIX369FF/9naqacbSfIMGDXRGHUjJLdDXxq5MIz36bRUQF0hpzqoPVuXwPgmQAAmQgDcIeHZZPi0tTVXoTp48mU+FLpBqWqdOnVQ1Dc/QscMcz92hovboo4+G9C2xKzOUAqyU5qz6EKxM7A+AL3rsEShevLheY4mfgQRIgARIwB0EHDdzjxdW7Gzv16+fPh/Pzc3Np0JnqKZlZGRoc6CuBmU5BOigP/nkkwKde0NwBUvw5oCZNvKYZ+N2ZSKvlYIb4gylOSjH4bHFsGHDVGnOrg/IZxUGDhwo9957ry8aO/q3bt2qGwh9N3lBAiRAAiSQtAQ87X62YsWKuuEN0rGBApbhcaQNs/tA4YEHHlBd9F69egWKDngvWJkBM9ncDNYHm6yMIgESIAEScCkBz87cMZ440uYvE2seZyzD+wecEcdu+u+++06aNWumO+3909h9DlSmXfpgcf59wJL74sWLLbNBhW7btm2W8YwgARIgARJIfgKeNu6RDN/GjRvl/vvv1xn9pEmTBM/DnRRwHA97AqwCVeisyPA+CZAACbiHAI17mGP58ccfC15ODjTgTh4dto0ESIAEYk+Axj1CxqmpqepqNisrK8ISQst23333qYtbpN60aZN6vQstp3UqbKbLyclx/I8U6x4whgRIgARIwI4AjbsdHZu4nj17qktaf+MebQW3OnXqSMOGDVXB7csvv4yKcX/ssccE/u+dvgJhg59RJEACJEACNgRo3G3g2EXhmBz8z/uHaCu4GW5x16xZ418VP5MACZAACZBAQAKedGLz6quv6k53fyK4f9ttt+ltGNX+/fsLFNvgDvfFF1/U+1iOh095+JeHJroRoOC2evVquf3221VQBtd4VatWTZPAEx7cxcJI/+lPf9KyjbyRvjdp0sTXPtTVpUuXfEUNHz5cXn/9dW3/ypUrBZ71/IPRn3h4BfSvm59JgARIgARiQ8CTxh1Oa+6+++58RCHuAo9tcOmKgONuv/zlL1VABk5eDN/veJ86daouj0NIxgjBFNzsVOGMMsJ9x7E8OL+Bb3k41Bk0aJDvxwR+mHTo0EF27twpUL57//331SOfuQ78kIEznt27d0fFn7+5bF6TAAmQAAkkjoAnjfsXX3whjRs3VuqYRUOLvWXLlnp23TwUR48eVUO+fft2efnll31R+AFw/vx532fjwkrBLRRVOKOMUN/h1x4/RpYvXy5QoMOxPISOHTv63nGmHufaDx06JIsWLRLz/gCsJCDP3/72N02jmfiHBEiABEjAFQQc98x9z549UZlF2i0zYyMZNsRhGRse6OA7Hp7ePv/883yD+tFHH+X7HOmHUFThwi3bELHZu3evZr106ZKq2xmPAbDyAJ/2VgG+5KFihw17DCRAAiRAAu4i4DjjjmXiWAfMxKECB2c0WE7HrL1IkSLyxhtv5Ks60Ow8X4IAHwIpuIWiCjd48GB9Vp+ZmalL6f5Fo1zM1I1w5swZvbz11lvFuE5JSZFz587pffi7t1OtO3LkiO4BgM97LOfDZz4DCZAACZCAOwh4clkey9WYtd5yyy2ydOlSNewwnNGYqQdScAtFFa5t27a6yQ8ubQMFtBm+7LHCgAAteTxvh1973EtPT9f7+OGCgBUQrBgYm+xat24t2MlvBKjbwcBv2LBB02BzHgMJkAAJkIA7CHjSuGPo4MUNS9mY6eJZOYy9v993f6U25MMueeyev+OOO/ScO66xE90IUHD7+uuvVWENcTVq1NAozJCrV68uOEKH+1CWgx94/2BWkjPHLVmyRMqWLSuvvPKK7gNAHPYBYFkd99q3by9btmzRviAO9R07dkxn5ahv7NixKpKDOHPAjxv0G5vzGEiABEiABNxBwHGqcO7Aat2LaKvCoSYYeBhyqwDtdmwOZCABEiABEvAGARp3b4wze0kCJEACJOAhAp5dlvfQGLOrJEACJEACHiNA4+6xAWd3SYAESIAE3E+Axt39Y8wekgAJkAAJeIwAjbvHBpzdJQESIAEScD8BGnf3jzF7SAIkQAIk4DECNO4eG3B2lwRIgARIwP0EaNzdP8bsIQmQAAmQgMcI0Lh7bMDZXRIgARIgAfcToHF3/xizhyRAAiRAAh4jQOPusQFnd0mABEiABNxPgMbd/WPMHpIACZAACXiMwP8DCsrLi7k62G4AAAAASUVORK5CYII=;" parent="1" vertex="1">
          <mxGeometry x="-490" y="1110" width="503" height="796" as="geometry" />
        </mxCell>
        <mxCell id="nsO0bjDOVVvHEehjIz_w-2" value="数据量小的时候混合保存：&lt;br&gt;.cfs:数据文件（下面信息的二进制拼接）&lt;div&gt;&lt;span style=&quot;white-space: pre;&quot;&gt;&#x9;&lt;/span&gt;.fnm 字段信息（字段名，字段类型，索引属性）&lt;/div&gt;&lt;div&gt;&lt;br&gt;&lt;/div&gt;&lt;div&gt;&lt;span style=&quot;white-space: pre;&quot;&gt;&#x9;&lt;/span&gt;.fdt 文档内容（行存，通过文档id定位内容）&lt;/div&gt;&lt;div&gt;&lt;span style=&quot;white-space: pre;&quot;&gt;&#x9;&lt;/span&gt;.fdx 文档索引（加快fdt的查找）&lt;/div&gt;&lt;div&gt;&lt;br&gt;&lt;/div&gt;&lt;div&gt;&lt;span style=&quot;white-space: pre;&quot;&gt;&#x9;&lt;/span&gt;.tim 倒排索引的词典表（term，文档频率，字典序排列）&lt;/div&gt;&lt;div&gt;&lt;span style=&quot;white-space: pre;&quot;&gt;&#x9;&lt;/span&gt;.tip 每N条词典表抽取一条建立的稀疏索引，用于加快tim的查找&lt;br&gt;&lt;/div&gt;&lt;div&gt;&lt;br&gt;&lt;/div&gt;&lt;div&gt;&lt;span style=&quot;white-space: pre;&quot;&gt;&#x9;&lt;/span&gt;.doc 倒排列表（每个term对应的文档id列表，以及词频）&lt;/div&gt;&lt;div&gt;&lt;span style=&quot;white-space: pre;&quot;&gt;&#x9;&lt;/span&gt;.pos 词条位置信息（term在文档出现的位置，偏移量）&lt;/div&gt;&lt;div&gt;&lt;br&gt;&lt;/div&gt;&lt;div&gt;&lt;span style=&quot;white-space: pre;&quot;&gt;&#x9;&lt;/span&gt;.dim&amp;nbsp;通过block KD-tree structure实现，加快范围查询&lt;br&gt;&lt;/div&gt;&lt;div&gt;&lt;span style=&quot;white-space: pre;&quot;&gt;&#x9;&lt;/span&gt;.dii 加快dim查询&lt;br&gt;&lt;/div&gt;&lt;div&gt;&lt;span style=&quot;white-space: pre;&quot;&gt;&#x9;&lt;/span&gt;&lt;br&gt;&lt;/div&gt;&lt;div&gt;&lt;span style=&quot;white-space: pre;&quot;&gt;&#x9;&lt;/span&gt;.dvd 字段列存（用于加快排序，聚合）&lt;/div&gt;&lt;div&gt;&lt;span style=&quot;white-space: pre;&quot;&gt;&#x9;&lt;/span&gt;.dvm dvd的元数据&lt;br&gt;.cfe:索引文件&lt;/div&gt;&lt;div&gt;&lt;span style=&quot;white-space: pre;&quot;&gt;&#x9;&lt;/span&gt;记录.cfs中的各个子文件的位置，长度等，快速定位&lt;br&gt;&lt;/div&gt;&lt;div&gt;.si: segment info 段信息&lt;/div&gt;&lt;div&gt;segment_n: commit point ，存储当前生效的segment集合&lt;/div&gt;" style="text;html=1;align=left;verticalAlign=middle;resizable=0;points=[];autosize=1;fillColor=#f5f5f5;fontColor=#333333;strokeColor=#666666;" parent="1" vertex="1">
          <mxGeometry x="60" y="1110" width="380" height="330" as="geometry" />
        </mxCell>
      </root>
    </mxGraphModel>
  </diagram>
  <diagram id="HtjlyvYrdgTbRT1da4rH" name="大模型">
    <mxGraphModel dx="2034" dy="887" grid="1" gridSize="10" guides="1" tooltips="1" connect="1" arrows="1" fold="1" page="1" pageScale="1" pageWidth="827" pageHeight="1169" math="0" shadow="0">
      <root>
        <mxCell id="0" />
        <mxCell id="1" parent="0" />
        <mxCell id="-ScDWW_V6jiQ_rjggYxO-9" style="edgeStyle=orthogonalEdgeStyle;rounded=0;orthogonalLoop=1;jettySize=auto;html=1;exitX=0.5;exitY=1;exitDx=0;exitDy=0;entryX=0.5;entryY=0;entryDx=0;entryDy=0;" edge="1" parent="1" source="-ScDWW_V6jiQ_rjggYxO-1" target="-ScDWW_V6jiQ_rjggYxO-2">
          <mxGeometry relative="1" as="geometry" />
        </mxCell>
        <mxCell id="-ScDWW_V6jiQ_rjggYxO-1" value="文档解析" style="rounded=1;whiteSpace=wrap;html=1;" vertex="1" parent="1">
          <mxGeometry x="354" y="290" width="120" height="60" as="geometry" />
        </mxCell>
        <mxCell id="-ScDWW_V6jiQ_rjggYxO-10" style="edgeStyle=orthogonalEdgeStyle;rounded=0;orthogonalLoop=1;jettySize=auto;html=1;exitX=0.5;exitY=1;exitDx=0;exitDy=0;entryX=0.5;entryY=0;entryDx=0;entryDy=0;" edge="1" parent="1" source="-ScDWW_V6jiQ_rjggYxO-2" target="-ScDWW_V6jiQ_rjggYxO-3">
          <mxGeometry relative="1" as="geometry" />
        </mxCell>
        <mxCell id="-ScDWW_V6jiQ_rjggYxO-19" style="edgeStyle=orthogonalEdgeStyle;rounded=0;orthogonalLoop=1;jettySize=auto;html=1;exitX=0;exitY=0.5;exitDx=0;exitDy=0;entryX=1;entryY=0.5;entryDx=0;entryDy=0;" edge="1" parent="1" source="-ScDWW_V6jiQ_rjggYxO-2" target="-ScDWW_V6jiQ_rjggYxO-18">
          <mxGeometry relative="1" as="geometry" />
        </mxCell>
        <mxCell id="-ScDWW_V6jiQ_rjggYxO-21" style="edgeStyle=orthogonalEdgeStyle;rounded=0;orthogonalLoop=1;jettySize=auto;html=1;exitX=0;exitY=0.5;exitDx=0;exitDy=0;entryX=1;entryY=0.5;entryDx=0;entryDy=0;" edge="1" parent="1" source="-ScDWW_V6jiQ_rjggYxO-2" target="-ScDWW_V6jiQ_rjggYxO-20">
          <mxGeometry relative="1" as="geometry" />
        </mxCell>
        <mxCell id="-ScDWW_V6jiQ_rjggYxO-28" style="edgeStyle=orthogonalEdgeStyle;rounded=0;orthogonalLoop=1;jettySize=auto;html=1;exitX=0;exitY=0.5;exitDx=0;exitDy=0;entryX=1;entryY=0.5;entryDx=0;entryDy=0;" edge="1" parent="1" source="-ScDWW_V6jiQ_rjggYxO-2" target="-ScDWW_V6jiQ_rjggYxO-27">
          <mxGeometry relative="1" as="geometry" />
        </mxCell>
        <mxCell id="-ScDWW_V6jiQ_rjggYxO-2" value="文档分片" style="rounded=1;whiteSpace=wrap;html=1;" vertex="1" parent="1">
          <mxGeometry x="354" y="420" width="120" height="60" as="geometry" />
        </mxCell>
        <mxCell id="-ScDWW_V6jiQ_rjggYxO-11" style="edgeStyle=orthogonalEdgeStyle;rounded=0;orthogonalLoop=1;jettySize=auto;html=1;exitX=0.5;exitY=1;exitDx=0;exitDy=0;entryX=0.5;entryY=0;entryDx=0;entryDy=0;" edge="1" parent="1" source="-ScDWW_V6jiQ_rjggYxO-3" target="-ScDWW_V6jiQ_rjggYxO-5">
          <mxGeometry relative="1" as="geometry" />
        </mxCell>
        <mxCell id="-ScDWW_V6jiQ_rjggYxO-25" style="edgeStyle=orthogonalEdgeStyle;rounded=0;orthogonalLoop=1;jettySize=auto;html=1;entryX=1;entryY=0.5;entryDx=0;entryDy=0;" edge="1" parent="1" source="-ScDWW_V6jiQ_rjggYxO-3" target="-ScDWW_V6jiQ_rjggYxO-23">
          <mxGeometry relative="1" as="geometry" />
        </mxCell>
        <mxCell id="-ScDWW_V6jiQ_rjggYxO-3" value="内容embedding" style="rounded=1;whiteSpace=wrap;html=1;" vertex="1" parent="1">
          <mxGeometry x="354" y="540" width="120" height="60" as="geometry" />
        </mxCell>
        <mxCell id="-ScDWW_V6jiQ_rjggYxO-5" value="向量存储" style="rounded=1;whiteSpace=wrap;html=1;" vertex="1" parent="1">
          <mxGeometry x="490" y="660" width="120" height="60" as="geometry" />
        </mxCell>
        <mxCell id="-ScDWW_V6jiQ_rjggYxO-12" style="edgeStyle=orthogonalEdgeStyle;rounded=0;orthogonalLoop=1;jettySize=auto;html=1;exitX=0.5;exitY=1;exitDx=0;exitDy=0;entryX=0.5;entryY=0;entryDx=0;entryDy=0;" edge="1" parent="1" source="-ScDWW_V6jiQ_rjggYxO-6" target="-ScDWW_V6jiQ_rjggYxO-5">
          <mxGeometry relative="1" as="geometry" />
        </mxCell>
        <mxCell id="-ScDWW_V6jiQ_rjggYxO-6" value="多路检索" style="rounded=1;whiteSpace=wrap;html=1;" vertex="1" parent="1">
          <mxGeometry x="630" y="540" width="120" height="60" as="geometry" />
        </mxCell>
        <mxCell id="-ScDWW_V6jiQ_rjggYxO-13" style="edgeStyle=orthogonalEdgeStyle;rounded=0;orthogonalLoop=1;jettySize=auto;html=1;exitX=0.5;exitY=1;exitDx=0;exitDy=0;entryX=0.5;entryY=0;entryDx=0;entryDy=0;" edge="1" parent="1" source="-ScDWW_V6jiQ_rjggYxO-7" target="-ScDWW_V6jiQ_rjggYxO-6">
          <mxGeometry relative="1" as="geometry" />
        </mxCell>
        <mxCell id="-ScDWW_V6jiQ_rjggYxO-7" value="重排" style="rounded=1;whiteSpace=wrap;html=1;" vertex="1" parent="1">
          <mxGeometry x="630" y="420" width="120" height="60" as="geometry" />
        </mxCell>
        <mxCell id="-ScDWW_V6jiQ_rjggYxO-14" style="edgeStyle=orthogonalEdgeStyle;rounded=0;orthogonalLoop=1;jettySize=auto;html=1;exitX=0.5;exitY=1;exitDx=0;exitDy=0;entryX=0.5;entryY=0;entryDx=0;entryDy=0;" edge="1" parent="1" source="-ScDWW_V6jiQ_rjggYxO-8" target="-ScDWW_V6jiQ_rjggYxO-7">
          <mxGeometry relative="1" as="geometry" />
        </mxCell>
        <mxCell id="-ScDWW_V6jiQ_rjggYxO-17" style="edgeStyle=orthogonalEdgeStyle;rounded=0;orthogonalLoop=1;jettySize=auto;html=1;" edge="1" parent="1" source="-ScDWW_V6jiQ_rjggYxO-8" target="-ScDWW_V6jiQ_rjggYxO-16">
          <mxGeometry relative="1" as="geometry" />
        </mxCell>
        <mxCell id="-ScDWW_V6jiQ_rjggYxO-8" value="query改写" style="rounded=1;whiteSpace=wrap;html=1;" vertex="1" parent="1">
          <mxGeometry x="630" y="290" width="120" height="60" as="geometry" />
        </mxCell>
        <mxCell id="-ScDWW_V6jiQ_rjggYxO-16" value="LLM" style="rounded=1;whiteSpace=wrap;html=1;" vertex="1" parent="1">
          <mxGeometry x="860" y="290" width="120" height="60" as="geometry" />
        </mxCell>
        <mxCell id="-ScDWW_V6jiQ_rjggYxO-24" style="edgeStyle=orthogonalEdgeStyle;rounded=0;orthogonalLoop=1;jettySize=auto;html=1;exitX=0;exitY=0.5;exitDx=0;exitDy=0;entryX=0.5;entryY=0;entryDx=0;entryDy=0;" edge="1" parent="1" source="-ScDWW_V6jiQ_rjggYxO-18" target="-ScDWW_V6jiQ_rjggYxO-23">
          <mxGeometry relative="1" as="geometry" />
        </mxCell>
        <mxCell id="-ScDWW_V6jiQ_rjggYxO-18" value="语意分片" style="rounded=1;whiteSpace=wrap;html=1;" vertex="1" parent="1">
          <mxGeometry x="150" y="460" width="90" height="40" as="geometry" />
        </mxCell>
        <mxCell id="-ScDWW_V6jiQ_rjggYxO-20" value="固定窗口" style="rounded=1;whiteSpace=wrap;html=1;" vertex="1" parent="1">
          <mxGeometry x="150" y="370" width="90" height="40" as="geometry" />
        </mxCell>
        <mxCell id="-ScDWW_V6jiQ_rjggYxO-22" value="把段落进行embedding&lt;div&gt;然后计算段落之间的相似度&lt;/div&gt;&lt;div&gt;把大于谋阈值的合并在一起&lt;/div&gt;" style="text;html=1;align=left;verticalAlign=middle;resizable=0;points=[];autosize=1;strokeColor=#666666;fillColor=#f5f5f5;fontColor=#333333;" vertex="1" parent="1">
          <mxGeometry x="-60" y="440" width="170" height="60" as="geometry" />
        </mxCell>
        <mxCell id="-ScDWW_V6jiQ_rjggYxO-23" value="embedding模型" style="rounded=1;whiteSpace=wrap;html=1;" vertex="1" parent="1">
          <mxGeometry x="30" y="550" width="90" height="40" as="geometry" />
        </mxCell>
        <mxCell id="-ScDWW_V6jiQ_rjggYxO-27" value="固定窗口+重叠" style="rounded=1;whiteSpace=wrap;html=1;" vertex="1" parent="1">
          <mxGeometry x="150" y="290" width="90" height="40" as="geometry" />
        </mxCell>
        <mxCell id="-ScDWW_V6jiQ_rjggYxO-29" value="" style="rounded=0;whiteSpace=wrap;html=1;" vertex="1" parent="1">
          <mxGeometry x="-140" y="290" width="100" height="20" as="geometry" />
        </mxCell>
        <mxCell id="-ScDWW_V6jiQ_rjggYxO-30" value="" style="rounded=0;whiteSpace=wrap;html=1;" vertex="1" parent="1">
          <mxGeometry y="290" width="120" height="20" as="geometry" />
        </mxCell>
        <mxCell id="-ScDWW_V6jiQ_rjggYxO-32" value="重叠" style="rounded=0;whiteSpace=wrap;html=1;fillColor=#f5f5f5;fontColor=#333333;strokeColor=#666666;" vertex="1" parent="1">
          <mxGeometry x="-40" y="290" width="40" height="20" as="geometry" />
        </mxCell>
        <mxCell id="-ScDWW_V6jiQ_rjggYxO-33" value="" style="rounded=0;whiteSpace=wrap;html=1;fillColor=none;" vertex="1" parent="1">
          <mxGeometry x="-520" y="760" width="660" height="330" as="geometry" />
        </mxCell>
        <mxCell id="-ScDWW_V6jiQ_rjggYxO-34" value="统计型语言模型" style="rounded=0;whiteSpace=wrap;html=1;" vertex="1" parent="1">
          <mxGeometry x="-520" y="760" width="100" height="30" as="geometry" />
        </mxCell>
        <mxCell id="-ScDWW_V6jiQ_rjggYxO-35" value="N-gram" style="text;html=1;align=center;verticalAlign=middle;resizable=0;points=[];autosize=1;strokeColor=none;fillColor=none;" vertex="1" parent="1">
          <mxGeometry x="-500" y="820" width="60" height="30" as="geometry" />
        </mxCell>
        <mxCell id="-ScDWW_V6jiQ_rjggYxO-36" value="&lt;div&gt;&lt;b&gt;原理：&lt;/b&gt;&lt;/div&gt;句子：w1,w2,w3,w4,w5,w6,w7&lt;div&gt;P(w1...w7) = p(w1)p(w2|w1)p(w3|w,w1)-&amp;gt;所有的条件概率之积&lt;/div&gt;&lt;div&gt;一般不会是整个句子计算，所以会限制N个词，所以是N-gram，一般可能取N=5&lt;br&gt;&lt;br&gt;&lt;b&gt;局限性：&lt;/b&gt;&lt;/div&gt;&lt;div&gt;无法处理长句子，因为更长意味着计算量更大&lt;br&gt;没有考虑词的内在联系：比如apple在不同语境下可能表示水果或者手机&lt;br&gt;&lt;br&gt;&lt;b&gt;原因：&lt;/b&gt;&lt;/div&gt;&lt;div&gt;编码的向量是one-hot（独热编码），向量的维度等于词典的大小，每个向量&lt;b&gt;两两正交&lt;/b&gt;&lt;/div&gt;&lt;div&gt;上万或者百万的词典，会导致&lt;b&gt;维度灾难&lt;/b&gt;&lt;/div&gt;" style="text;html=1;align=left;verticalAlign=middle;resizable=0;points=[];autosize=1;strokeColor=none;fillColor=none;" vertex="1" parent="1">
          <mxGeometry x="-490" y="840" width="470" height="190" as="geometry" />
        </mxCell>
        <mxCell id="-ScDWW_V6jiQ_rjggYxO-37" value="https://www.cnblogs.com/guoyaohua/p/9240336.html" style="text;html=1;align=center;verticalAlign=middle;resizable=0;points=[];autosize=1;strokeColor=none;fillColor=none;" vertex="1" parent="1">
          <mxGeometry x="-520" y="730" width="300" height="30" as="geometry" />
        </mxCell>
      </root>
    </mxGraphModel>
  </diagram>
  <diagram id="wWASoo8fH0tp4PAcxHAP" name="RAG">
    <mxGraphModel dx="1207" dy="887" grid="1" gridSize="10" guides="1" tooltips="1" connect="1" arrows="1" fold="1" page="1" pageScale="1" pageWidth="827" pageHeight="1169" math="0" shadow="0">
      <root>
        <mxCell id="0" />
        <mxCell id="1" parent="0" />
        <mxCell id="lD9UrAM4Rg0UjuoWe458-1" value="" style="edgeStyle=orthogonalEdgeStyle;rounded=0;orthogonalLoop=1;jettySize=auto;html=1;fillColor=#dae8fc;strokeColor=#6c8ebf;" edge="1" parent="1" source="Cxn6I_64YZGByrTV2WIw-1" target="Cxn6I_64YZGByrTV2WIw-2">
          <mxGeometry relative="1" as="geometry" />
        </mxCell>
        <mxCell id="Cxn6I_64YZGByrTV2WIw-1" value="文档解析" style="rounded=1;whiteSpace=wrap;html=1;fillColor=#dae8fc;strokeColor=#6c8ebf;" vertex="1" parent="1">
          <mxGeometry x="310" y="110" width="90" height="50" as="geometry" />
        </mxCell>
        <mxCell id="lD9UrAM4Rg0UjuoWe458-2" value="" style="edgeStyle=orthogonalEdgeStyle;rounded=0;orthogonalLoop=1;jettySize=auto;html=1;fillColor=#dae8fc;strokeColor=#6c8ebf;" edge="1" parent="1" source="Cxn6I_64YZGByrTV2WIw-2" target="Cxn6I_64YZGByrTV2WIw-3">
          <mxGeometry relative="1" as="geometry" />
        </mxCell>
        <mxCell id="Cxn6I_64YZGByrTV2WIw-2" value="文档拆分" style="rounded=1;whiteSpace=wrap;html=1;fillColor=#dae8fc;strokeColor=#6c8ebf;" vertex="1" parent="1">
          <mxGeometry x="310" y="210" width="90" height="50" as="geometry" />
        </mxCell>
        <mxCell id="Cxn6I_64YZGByrTV2WIw-3" value="索引构建" style="rounded=1;whiteSpace=wrap;html=1;fillColor=#dae8fc;strokeColor=#6c8ebf;" vertex="1" parent="1">
          <mxGeometry x="310" y="320" width="90" height="50" as="geometry" />
        </mxCell>
        <mxCell id="Cxn6I_64YZGByrTV2WIw-4" value="数据库" style="shape=cylinder3;whiteSpace=wrap;html=1;boundedLbl=1;backgroundOutline=1;size=15;fillColor=#f5f5f5;fontColor=#333333;strokeColor=#666666;" vertex="1" parent="1">
          <mxGeometry x="470" y="400" width="60" height="80" as="geometry" />
        </mxCell>
        <mxCell id="lD9UrAM4Rg0UjuoWe458-4" style="edgeStyle=orthogonalEdgeStyle;rounded=0;orthogonalLoop=1;jettySize=auto;html=1;" edge="1" parent="1" source="Cxn6I_64YZGByrTV2WIw-5" target="Cxn6I_64YZGByrTV2WIw-4">
          <mxGeometry relative="1" as="geometry" />
        </mxCell>
        <mxCell id="Cxn6I_64YZGByrTV2WIw-5" value="检索" style="rounded=1;whiteSpace=wrap;html=1;fillColor=#fff2cc;strokeColor=#d6b656;" vertex="1" parent="1">
          <mxGeometry x="610" y="320" width="90" height="50" as="geometry" />
        </mxCell>
        <mxCell id="lD9UrAM4Rg0UjuoWe458-6" value="" style="edgeStyle=orthogonalEdgeStyle;rounded=0;orthogonalLoop=1;jettySize=auto;html=1;fillColor=#fff2cc;strokeColor=#d6b656;" edge="1" parent="1" source="Cxn6I_64YZGByrTV2WIw-6" target="Cxn6I_64YZGByrTV2WIw-7">
          <mxGeometry relative="1" as="geometry" />
        </mxCell>
        <mxCell id="Cxn6I_64YZGByrTV2WIw-6" value="意图识别" style="rounded=1;whiteSpace=wrap;html=1;fillColor=#fff2cc;strokeColor=#d6b656;" vertex="1" parent="1">
          <mxGeometry x="610" y="110" width="90" height="50" as="geometry" />
        </mxCell>
        <mxCell id="lD9UrAM4Rg0UjuoWe458-5" value="" style="edgeStyle=orthogonalEdgeStyle;rounded=0;orthogonalLoop=1;jettySize=auto;html=1;fillColor=#fff2cc;strokeColor=#d6b656;" edge="1" parent="1" source="Cxn6I_64YZGByrTV2WIw-7" target="Cxn6I_64YZGByrTV2WIw-5">
          <mxGeometry relative="1" as="geometry" />
        </mxCell>
        <mxCell id="Cxn6I_64YZGByrTV2WIw-7" value="query改写" style="rounded=1;whiteSpace=wrap;html=1;fillColor=#fff2cc;strokeColor=#d6b656;" vertex="1" parent="1">
          <mxGeometry x="610" y="210" width="90" height="50" as="geometry" />
        </mxCell>
        <mxCell id="lD9UrAM4Rg0UjuoWe458-3" style="edgeStyle=orthogonalEdgeStyle;rounded=0;orthogonalLoop=1;jettySize=auto;html=1;entryX=0.5;entryY=0;entryDx=0;entryDy=0;entryPerimeter=0;" edge="1" parent="1" source="Cxn6I_64YZGByrTV2WIw-3" target="Cxn6I_64YZGByrTV2WIw-4">
          <mxGeometry relative="1" as="geometry" />
        </mxCell>
      </root>
    </mxGraphModel>
  </diagram>
</mxfile>
